<svg width="709" height="45" viewBox="0 0 709 45" fill="none" xmlns="http://www.w3.org/2000/svg">
<g filter="url(#filter0_d_140_11)">
<path d="M6.1875 41.0595C5.35677 41.0595 4.58333 40.6871 3.86719 39.9423C3.17969 39.2261 2.60677 38.1806 2.14844 36.8056C1.71875 35.4592 1.40365 33.7978 1.20312 31.8212C1.03125 29.816 1.04557 27.5386 1.24609 24.9892C1.36068 23.2991 1.58984 21.5803 1.93359 19.8329C2.27734 18.0569 2.66406 16.3524 3.09375 14.7196C3.52344 13.0582 3.98177 11.497 4.46875 10.036C4.95573 8.5751 5.39974 7.28604 5.80078 6.16885C6.23047 5.02302 6.57422 4.10635 6.83203 3.41885C7.11849 2.73135 7.29036 2.33031 7.34766 2.21573C7.43359 2.0725 7.59115 1.92927 7.82031 1.78604C8.07812 1.61417 8.36458 1.47094 8.67969 1.35635C9.02344 1.24177 9.38151 1.15583 9.75391 1.09854C10.1549 1.0126 10.5273 0.969635 10.8711 0.969635C11.1576 0.969635 11.4297 0.983958 11.6875 1.0126C11.9167 1.04125 12.1458 1.08422 12.375 1.14151C12.6042 1.1988 12.8047 1.28474 12.9766 1.39932C12.6615 1.59984 12.3464 1.91495 12.0312 2.34464C11.7448 2.74568 11.4727 3.17536 11.2148 3.6337C10.8997 4.14932 10.6133 4.70792 10.3555 5.30948C9.78255 6.5126 9.18099 7.97354 8.55078 9.69229C7.92057 11.411 7.31901 13.2444 6.74609 15.1923C6.20182 17.1116 5.71484 19.0738 5.28516 21.079C4.88411 23.0556 4.61198 24.9176 4.46875 26.6649C4.23958 30.1884 4.36849 32.8095 4.85547 34.5282C5.34245 36.2756 6.02995 37.1493 6.91797 37.1493C7.34766 37.1493 7.80599 36.8772 8.29297 36.3329C8.77995 35.7886 9.26693 35.0868 9.75391 34.2274C10.2695 33.3681 10.7708 32.4084 11.2578 31.3485C11.7448 30.2886 12.2031 29.2431 12.6328 28.2118C12.8906 27.553 13.1628 26.8225 13.4492 26.0204C13.7643 25.1897 14.0651 24.3446 14.3516 23.4853C14.6667 22.6259 14.9674 21.7808 15.2539 20.9501C15.5404 20.0907 15.7982 19.3173 16.0273 18.6298C16.0273 17.7704 16.0417 16.8681 16.0703 15.9228C16.099 14.9488 16.1562 13.9748 16.2422 13.0009C16.3568 11.9983 16.5 11.0243 16.6719 10.079C16.8438 9.10505 17.0729 8.21703 17.3594 7.41495C17.9323 5.86807 18.6055 4.73656 19.3789 4.02042C20.1523 3.27562 20.8255 2.88891 21.3984 2.86026C21.7995 2.86026 22.0859 3.03214 22.2578 3.37589C22.4297 3.71964 22.5013 4.17797 22.4727 4.75089C22.4154 5.49568 22.2865 6.39802 22.0859 7.45792C21.8854 8.48917 21.6419 9.60635 21.3555 10.8095C21.0977 11.984 20.7969 13.1871 20.4531 14.4189C20.1094 15.622 19.7799 16.7821 19.4648 17.8993C18.9492 20.8498 18.6341 23.5282 18.5195 25.9345C18.4049 28.3121 18.4193 30.3603 18.5625 32.079C18.7344 33.7691 19.0065 35.0725 19.3789 35.9892C19.7799 36.9345 20.2526 37.4071 20.7969 37.4071C21.4271 37.4071 22.0859 36.9774 22.7734 36.1181C23.4896 35.2587 24.1914 34.1272 24.8789 32.7235C25.5664 31.2912 26.2253 29.6728 26.8555 27.8681C27.5143 26.0634 28.1016 24.2157 28.6172 22.3251C29.1615 20.4058 29.6055 18.5295 29.9492 16.6962C30.293 14.8342 30.5221 13.1584 30.6367 11.6689C30.7227 10.4371 30.7656 9.21964 30.7656 8.01651C30.7656 6.98526 30.7227 5.8824 30.6367 4.70792C30.5508 3.53344 30.3932 2.47354 30.1641 1.52823C30.5365 1.21312 31.0378 0.955312 31.668 0.754791C31.9831 0.640208 32.3268 0.539948 32.6992 0.45401C32.9284 0.396718 33.1719 0.35375 33.4297 0.325104C33.6589 0.296458 33.888 0.282135 34.1172 0.282135C34.3464 0.253489 34.5612 0.267812 34.7617 0.325104C34.9336 0.726145 35.0482 1.24177 35.1055 1.87198C35.1914 2.50219 35.2487 3.11807 35.2773 3.71964C35.306 4.43578 35.2917 5.18057 35.2344 5.95401C35.0052 8.99047 34.6042 11.9696 34.0312 14.8915C33.487 17.8134 32.8138 20.592 32.0117 23.2274C31.2096 25.8342 30.3073 28.2405 29.3047 30.4462C28.3307 32.6233 27.3138 34.5139 26.2539 36.1181C25.2227 37.7222 24.1771 38.9683 23.1172 39.8564C22.0859 40.7444 21.0977 41.1884 20.1523 41.1884C19.1497 41.1884 18.3477 40.7587 17.7461 39.8993C17.1445 39.0686 16.6862 38.0087 16.3711 36.7196C16.056 35.4592 15.8555 34.0985 15.7695 32.6376C15.6836 31.1767 15.6549 29.8303 15.6836 28.5985C15.0247 30.2027 14.3086 31.7496 13.5352 33.2392C12.7904 34.7287 12.0026 36.0465 11.1719 37.1923C10.3698 38.3668 9.53906 39.2978 8.67969 39.9853C7.84896 40.7014 7.01823 41.0595 6.1875 41.0595ZM58.7967 23.3993C58.9972 23.1702 59.1978 23.0556 59.3983 23.0556C59.6274 23.0269 59.7993 23.0842 59.9139 23.2274C60.0571 23.342 60.1144 23.5282 60.0858 23.786C60.0858 24.0439 59.9712 24.3303 59.742 24.6454C59.1978 25.3902 58.5676 26.1636 57.8514 26.9657C57.1353 27.7392 56.3618 28.4983 55.5311 29.2431C54.729 29.9879 53.9126 30.6897 53.0819 31.3485C52.2511 32.0074 51.4491 32.5517 50.6756 32.9814C49.8162 33.4683 49.0858 33.7118 48.4842 33.7118C47.9113 33.7118 47.3384 33.3394 46.7655 32.5946C46.2498 31.9358 45.992 31.234 45.992 30.4892C46.0207 29.7157 46.1926 28.7561 46.5077 27.6103C46.7082 26.8941 46.9803 26.0491 47.3241 25.0751C47.6965 24.0725 47.9829 23.1129 48.1834 22.1962C48.4126 21.2795 48.4842 20.5061 48.3983 19.8759C48.3123 19.217 47.9399 18.8876 47.2811 18.8876C46.8228 18.8876 46.3215 19.0452 45.7772 19.3603C45.2616 19.6754 44.7316 20.0907 44.1873 20.6064C43.6717 21.0933 43.1704 21.6519 42.6834 22.2821C42.1965 22.9123 41.7668 23.5282 41.3944 24.1298C41.1652 25.247 40.936 26.3498 40.7069 27.4384C40.5064 28.3551 40.2915 29.3577 40.0623 30.4462C39.8618 31.5061 39.6613 32.4514 39.4608 33.2821C39.2889 33.4254 39.1027 33.5256 38.9022 33.5829C38.7017 33.6402 38.5155 33.6689 38.3436 33.6689C38.1431 33.6689 37.9426 33.6545 37.742 33.6259C37.5129 33.5686 37.298 33.4827 37.0975 33.3681C36.9256 33.2535 36.7537 33.0959 36.5819 32.8954C36.41 32.7235 36.2811 32.4801 36.1952 32.1649C37.4842 26.8655 38.5011 22.6116 39.2459 19.4032C39.9907 16.1949 40.5636 13.7457 40.9647 12.0556C41.423 10.0504 41.7381 8.66104 41.91 7.8876C41.9959 7.34333 42.0676 6.81339 42.1248 6.29776C42.1821 5.83943 42.2108 5.36677 42.2108 4.87979C42.2108 4.39281 42.1678 3.9488 42.0819 3.54776C42.311 3.40453 42.5545 3.28995 42.8123 3.20401C43.0988 3.11807 43.3709 3.04646 43.6287 2.98917C43.9439 2.90323 44.259 2.83161 44.5741 2.77432C44.8892 2.71703 45.1756 2.68839 45.4334 2.68839C45.6626 2.68839 45.8774 2.71703 46.078 2.77432C46.2785 2.80297 46.4074 2.88891 46.4647 3.03214C46.6366 3.17536 46.7082 3.46182 46.6795 3.89151C46.6795 4.3212 46.6509 4.76521 46.5936 5.22354C46.479 5.76781 46.3501 6.35505 46.2069 6.98526C45.6053 9.30557 44.9321 11.5686 44.1873 13.7743C43.4426 15.9514 42.7551 18.286 42.1248 20.7782C42.4972 20.2053 42.9412 19.6181 43.4569 19.0165C43.9725 18.4149 44.5311 17.8707 45.1327 17.3837C45.7629 16.8681 46.4217 16.4527 47.1092 16.1376C47.7967 15.7939 48.5272 15.622 49.3006 15.622C49.7017 15.622 50.0741 15.6936 50.4178 15.8368C50.7902 15.9514 51.1053 16.1662 51.3631 16.4814C51.6496 16.7678 51.8644 17.1689 52.0077 17.6845C52.1509 18.1715 52.2082 18.7873 52.1795 19.5321C52.1795 19.9905 52.1222 20.4631 52.0077 20.9501C51.9217 21.4371 51.7928 21.9814 51.6209 22.5829C51.4491 23.1558 51.2199 23.8004 50.9334 24.5165C50.6756 25.2327 50.3605 26.0634 49.9881 27.0087C49.7303 27.6676 49.5298 28.2261 49.3866 28.6845C49.2433 29.1428 49.272 29.5439 49.4725 29.8876C49.7303 30.3459 50.2316 30.4605 50.9764 30.2314C51.7498 29.9735 52.8957 29.2287 54.4139 27.997C54.7577 27.7105 55.1444 27.3524 55.5741 26.9228C56.0037 26.4931 56.4191 26.0634 56.8202 25.6337C57.2212 25.1754 57.5936 24.7457 57.9373 24.3446C58.2811 23.9436 58.5676 23.6285 58.7967 23.3993ZM79.8239 24.3017C79.4229 24.8746 78.9072 25.5907 78.277 26.4501C77.6468 27.2808 76.988 28.1259 76.3005 28.9853C75.6416 29.816 74.9828 30.5894 74.3239 31.3056C73.6937 31.9931 73.1637 32.4801 72.7341 32.7665C72.4476 32.9384 72.1182 33.0816 71.7458 33.1962C71.3734 33.3108 70.9867 33.3824 70.5856 33.411C70.2132 33.4397 69.8552 33.411 69.5114 33.3251C69.1677 33.2678 68.8669 33.1532 68.6091 32.9814C68.3512 32.7808 68.1364 32.4944 67.9645 32.122C67.8213 31.8069 67.6781 31.3915 67.5348 30.8759C67.4203 30.3603 67.3773 29.7157 67.4059 28.9423C66.7184 30.0881 65.9593 30.9761 65.1286 31.6064C64.2979 32.2079 63.5101 32.6519 62.7653 32.9384C61.9059 33.2535 61.0466 33.4397 60.1872 33.497C59.7861 33.497 59.3565 33.3537 58.8981 33.0673C58.4398 32.8095 58.0531 32.3941 57.738 31.8212C57.4229 31.2196 57.2223 30.4605 57.1364 29.5439C57.0505 28.5985 57.1651 27.4814 57.4802 26.1923C57.8812 24.4449 58.5114 22.8551 59.3708 21.4228C60.2588 19.9905 61.2184 18.773 62.2497 17.7704C63.2809 16.7392 64.2979 15.9657 65.3005 15.4501C66.3031 14.9345 67.1338 14.7053 67.7927 14.7626C68.5661 14.9058 69.1963 15.135 69.6833 15.4501C70.0843 15.7366 70.3421 16.1662 70.4567 16.7392C70.5999 17.2834 70.3708 18.0139 69.7692 18.9306C70.1703 18.8446 70.4997 18.7873 70.7575 18.7587C71.044 18.7301 71.2588 18.7157 71.402 18.7157C71.5739 18.7157 71.6885 18.7301 71.7458 18.7587C71.7744 18.816 71.7887 18.9449 71.7887 19.1454C71.7887 19.3173 71.7458 19.6467 71.6598 20.1337C71.5739 20.6207 71.445 21.2795 71.2731 22.1103C71.1012 22.941 70.8721 24.0152 70.5856 25.3329C70.5283 25.5907 70.471 25.8342 70.4137 26.0634C70.3851 26.2639 70.3421 26.4787 70.2848 26.7079C70.2562 26.9084 70.2132 27.1519 70.1559 27.4384C70.0986 27.7248 70.027 28.0829 69.9411 28.5126C69.9124 28.7704 69.8981 29.0569 69.8981 29.372C69.9268 29.6584 69.9841 29.9306 70.07 30.1884C70.1559 30.4462 70.2848 30.661 70.4567 30.8329C70.6572 30.9761 70.9294 31.0478 71.2731 31.0478C71.5596 31.0478 71.932 30.8759 72.3903 30.5321C72.8486 30.1597 73.3356 29.7014 73.8512 29.1571C74.3669 28.5842 74.8968 27.9683 75.4411 27.3095C76.014 26.622 76.544 25.9631 77.0309 25.3329C77.5179 24.7027 77.9476 24.1441 78.32 23.6571C78.721 23.1702 79.0075 22.8121 79.1794 22.5829C79.4085 22.3251 79.6377 22.1819 79.8669 22.1532C80.096 22.0959 80.2679 22.1532 80.3825 22.3251C80.4971 22.497 80.5114 22.7548 80.4255 23.0985C80.3682 23.4423 80.1677 23.8433 79.8239 24.3017ZM67.2341 26.1923C67.3773 25.6194 67.5492 24.9462 67.7497 24.1728C67.9502 23.3993 68.1221 22.6545 68.2653 21.9384C68.4085 21.2222 68.5088 20.635 68.5661 20.1767C68.652 19.6897 68.6377 19.4605 68.5231 19.4892C68.3799 19.5178 68.2223 19.5608 68.0505 19.6181C67.9072 19.6754 67.721 19.7183 67.4919 19.747C67.2627 19.7756 67.0335 19.8186 66.8044 19.8759C67.0335 19.4176 67.1624 19.0452 67.1911 18.7587C67.2484 18.4436 67.2627 18.2001 67.2341 18.0282C67.2054 17.8277 67.1481 17.6702 67.0622 17.5556C66.7471 17.2978 66.1885 17.5126 65.3864 18.2001C64.613 18.859 63.7106 20.0907 62.6794 21.8954C62.2497 22.6402 61.9059 23.4423 61.6481 24.3017C61.3903 25.1324 61.2041 25.9202 61.0895 26.6649C61.0036 27.4097 60.9893 28.0686 61.0466 28.6415C61.1039 29.1858 61.2184 29.5439 61.3903 29.7157C61.7054 30.0308 62.0635 30.1884 62.4645 30.1884C62.8656 30.1597 63.2666 30.0452 63.6677 29.8446C64.0973 29.6155 64.5127 29.329 64.9137 28.9853C65.3434 28.6415 65.7158 28.2834 66.0309 27.911C66.3747 27.5386 66.6468 27.1949 66.8473 26.8798C67.0765 26.5647 67.2054 26.3355 67.2341 26.1923ZM93.4605 21.9814C93.5751 21.8095 93.7183 21.7092 93.8902 21.6806C94.0907 21.6233 94.2482 21.6376 94.3628 21.7235C94.4774 21.8095 94.5347 21.9527 94.5347 22.1532C94.5633 22.3537 94.4917 22.6259 94.3198 22.9696C93.7469 24.0582 92.9878 25.2327 92.0425 26.4931C91.1258 27.7535 90.1519 28.9423 89.1206 30.0595C88.0894 31.148 87.0868 32.0504 86.1128 32.7665C85.1389 33.4827 84.3225 33.8407 83.6636 33.8407C82.7183 33.8407 81.9305 33.6545 81.3003 33.2821C80.6701 32.9097 80.1688 32.4514 79.7964 31.9071C79.4527 31.3629 79.2092 30.7756 79.0659 30.1454C78.9227 29.4866 78.8797 28.885 78.937 28.3407C78.9657 27.8824 79.0659 27.066 79.2378 25.8915C79.4097 24.6884 79.6389 23.3134 79.9253 21.7665C80.2118 20.191 80.5269 18.5152 80.8706 16.7392C81.243 14.9345 81.6297 13.2014 82.0308 11.5399C81.5438 11.5972 81.0568 11.6545 80.5698 11.7118C80.0829 11.7691 79.6389 11.7978 79.2378 11.7978C78.3211 11.7978 77.4618 11.6975 76.6597 11.497C75.829 11.2678 75.2131 11.053 74.812 10.8524C74.5829 10.7379 74.4826 10.5803 74.5113 10.3798C74.5399 10.1506 74.6258 9.93578 74.7691 9.73526C74.9123 9.50609 75.0985 9.3199 75.3277 9.17667C75.5282 9.00479 75.7144 8.91885 75.8863 8.91885C76.4305 8.97615 77.0178 9.03344 77.648 9.09073C78.2782 9.11937 78.9657 9.11937 79.7105 9.09073C80.2547 9.06208 80.7704 9.01911 81.2573 8.96182C81.773 8.90453 82.2743 8.83292 82.7613 8.74698C83.1336 7.37198 83.4917 6.18318 83.8355 5.18057C84.2079 4.14932 84.5373 3.43318 84.8238 3.03214C84.9097 2.88891 85.0959 2.77432 85.3823 2.68839C85.6975 2.5738 86.0269 2.50219 86.3706 2.47354C86.7144 2.41625 87.0438 2.41625 87.3589 2.47354C87.674 2.50219 87.9032 2.60245 88.0464 2.77432C88.1896 3.00349 88.2469 3.59073 88.2183 4.53604C88.1896 5.48135 88.0321 6.68448 87.7456 8.14542C88.9488 8.14542 90.0086 8.21703 90.9253 8.36026C91.8706 8.47484 92.6727 8.61807 93.3316 8.78995C93.9904 8.93318 94.5204 9.09073 94.9214 9.2626C95.3225 9.40583 95.6232 9.50609 95.8238 9.56339C96.0243 9.62068 96.1245 9.76391 96.1245 9.99307C96.1532 10.2222 96.1102 10.4657 95.9956 10.7235C95.9097 10.9527 95.7521 11.1532 95.523 11.3251C95.2938 11.497 95.036 11.5543 94.7495 11.497C94.4631 11.4683 94.1336 11.411 93.7613 11.3251C93.4175 11.2392 92.9878 11.1676 92.4722 11.1103C91.9852 11.053 91.398 10.9957 90.7105 10.9384C90.023 10.8811 89.2209 10.8524 88.3042 10.8524C88.1323 10.8524 87.9318 10.8668 87.7027 10.8954C87.5021 10.8954 87.2873 10.8954 87.0581 10.8954C86.9435 11.3537 86.829 11.8121 86.7144 12.2704C86.6284 12.7001 86.4995 13.1584 86.3277 13.6454C85.9553 14.7912 85.5256 16.0373 85.0386 17.3837C84.6089 18.5582 84.0933 19.9045 83.4917 21.4228C82.8902 22.941 82.217 24.5595 81.4722 26.2782C81.3003 27.51 81.3146 28.4553 81.5152 29.1142C81.7443 29.7444 82.0165 30.2027 82.3316 30.4892C82.704 30.8043 83.1623 30.9761 83.7066 31.0048C84.1363 31.0621 84.6519 30.9189 85.2534 30.5751C85.8836 30.2027 86.5282 29.7157 87.187 29.1142C87.8459 28.5126 88.5047 27.8537 89.1636 27.1376C89.8511 26.4215 90.4813 25.7196 91.0542 25.0321C91.6271 24.3446 92.1284 23.7287 92.5581 23.1845C92.9878 22.6116 93.2886 22.2105 93.4605 21.9814ZM95.7103 8.05948C95.252 8.00219 94.8653 7.80167 94.5502 7.45792C94.2637 7.08552 94.1634 6.5699 94.2494 5.91104C94.3067 5.48135 94.4499 5.09464 94.6791 4.75089C94.9082 4.37849 95.1804 4.06339 95.4955 3.80557C95.8392 3.54776 96.2116 3.36156 96.6127 3.24698C97.0137 3.1324 97.4291 3.08943 97.8587 3.11807C98.6035 3.20401 99.0762 3.57641 99.2767 4.23526C99.5059 4.86547 99.5489 5.56729 99.4056 6.34073C99.3483 6.74177 99.2337 7.21443 99.0619 7.7587C98.89 8.30297 98.6322 8.86156 98.2884 9.43448C97.9733 10.0074 97.5723 10.566 97.0853 11.1103C96.627 11.6545 96.0684 12.1415 95.4095 12.5712C95.1231 12.7431 94.8939 12.829 94.722 12.829C94.5788 12.8004 94.4785 12.7287 94.4212 12.6142C94.364 12.4709 94.3496 12.2991 94.3783 12.0985C94.4356 11.898 94.5358 11.7118 94.6791 11.5399C94.9942 11.2248 95.3236 10.7522 95.6673 10.122C96.0397 9.46312 96.2976 8.7613 96.4408 8.01651C96.2976 8.04516 96.1686 8.0738 96.0541 8.10245C95.9395 8.13109 95.8249 8.11677 95.7103 8.05948ZM105.05 31.3915C105.222 31.5061 105.437 31.5634 105.695 31.5634C105.981 31.5634 106.253 31.5061 106.511 31.3915C106.797 31.2769 107.055 31.1194 107.284 30.9189C107.542 30.7183 107.728 30.4605 107.843 30.1454C107.958 29.8303 107.958 29.3863 107.843 28.8134C107.728 28.2118 107.542 27.5816 107.284 26.9228C107.055 26.2353 106.797 25.5478 106.511 24.8603C106.224 24.1728 105.981 23.5426 105.78 22.9696C105.609 22.5399 105.465 22.1389 105.351 21.7665C105.236 21.4514 105.122 21.1506 105.007 20.8642C104.921 20.5491 104.849 20.3342 104.792 20.2196C104.649 20.4488 104.391 20.8212 104.019 21.3368C103.675 21.8524 103.288 22.3967 102.859 22.9696C102.458 23.5139 102.071 24.0295 101.698 24.5165C101.326 24.9748 101.068 25.2899 100.925 25.4618C100.696 25.7196 100.467 25.8772 100.238 25.9345C100.037 25.9631 99.8651 25.9202 99.7219 25.8056C99.5786 25.6623 99.4927 25.4761 99.4641 25.247C99.4641 24.9892 99.5786 24.6884 99.8078 24.3446C99.9797 24.1155 100.238 23.7574 100.581 23.2704C100.925 22.7548 101.269 22.2392 101.613 21.7235C101.956 21.1793 102.271 20.7066 102.558 20.3056C102.844 19.8759 103.002 19.6181 103.03 19.5321C103.088 19.303 103.002 19.0022 102.773 18.6298C102.572 18.2574 102.543 17.8277 102.687 17.3407C102.801 16.9397 103.059 16.4814 103.46 15.9657C103.861 15.4215 104.334 14.9345 104.878 14.5048C105.422 14.0751 105.981 13.76 106.554 13.5595C107.127 13.3303 107.642 13.3303 108.101 13.5595C108.473 13.7886 108.774 14.0465 109.003 14.3329C109.232 14.5907 109.318 14.8629 109.261 15.1493C109.204 15.2926 109.118 15.4787 109.003 15.7079C108.889 15.9371 108.717 16.2235 108.488 16.5673C108.258 16.8824 107.929 17.2978 107.499 17.8134C107.585 18.4722 107.7 19.0738 107.843 19.6181C108.015 20.1623 108.172 20.635 108.316 21.036C108.488 21.523 108.674 21.967 108.874 22.3681C109.132 22.8837 109.404 23.4136 109.691 23.9579C109.977 24.5022 110.235 25.0465 110.464 25.5907C110.693 26.1064 110.879 26.5933 111.023 27.0517C111.166 27.51 111.209 27.8967 111.152 28.2118C111.066 28.6988 110.808 29.286 110.378 29.9735C109.977 30.661 109.461 31.3342 108.831 31.9931C108.23 32.6233 107.528 33.1676 106.726 33.6259C105.952 34.0842 105.136 34.3134 104.277 34.3134C103.675 34.3134 103.088 34.1272 102.515 33.7548C101.971 33.3824 101.498 32.9527 101.097 32.4657C100.724 31.9501 100.438 31.4488 100.238 30.9618C100.066 30.4748 100.051 30.1024 100.195 29.8446C100.366 29.5009 100.524 29.2287 100.667 29.0282C100.81 28.8277 101.025 28.5985 101.312 28.3407C101.426 28.2548 101.57 28.1545 101.741 28.0399C101.885 27.954 102.085 27.8681 102.343 27.7821C102.601 27.6962 102.902 27.5959 103.245 27.4814C103.532 28.3694 103.79 29.0712 104.019 29.5868C104.248 30.0738 104.434 30.4605 104.577 30.747C104.749 31.0621 104.907 31.2769 105.05 31.3915ZM130.733 5.95401C130.39 6.06859 130.132 6.08292 129.96 5.99698C129.788 5.91104 129.659 5.76781 129.573 5.56729C129.487 5.36677 129.444 5.15193 129.444 4.92276C129.444 4.66495 129.459 4.42146 129.487 4.19229C129.516 3.99177 129.559 3.7626 129.616 3.50479C129.702 3.24698 129.802 3.00349 129.917 2.77432C130.031 2.54516 130.16 2.35896 130.304 2.21573C130.475 2.04385 130.69 1.92927 130.948 1.87198C132.266 1.64281 133.541 1.47094 134.772 1.35635C136.033 1.24177 137.164 1.15583 138.167 1.09854C139.313 1.0126 140.416 0.969635 141.475 0.969635C141.705 0.969635 141.934 0.983958 142.163 1.0126C142.392 1.0126 142.621 1.0126 142.85 1.0126C143.108 0.955312 143.309 0.940989 143.452 0.969635C143.624 0.969635 143.767 0.983958 143.882 1.0126C144.712 1.04125 145.572 1.08422 146.46 1.14151C147.205 1.1988 148.035 1.27042 148.952 1.35635C149.897 1.41365 150.828 1.49958 151.745 1.61417C151.831 1.84333 151.845 2.12979 151.788 2.47354C151.759 2.64542 151.731 2.81729 151.702 2.98917C151.673 3.16104 151.602 3.31859 151.487 3.46182C151.401 3.60505 151.287 3.74828 151.143 3.89151C151.029 4.00609 150.886 4.10635 150.714 4.19229C149.74 4.16365 148.794 4.14932 147.878 4.14932C146.99 4.12068 146.202 4.10635 145.515 4.10635H143.194C142.822 5.42406 142.363 7.05687 141.819 9.00479C141.275 10.9241 140.716 12.9579 140.143 15.1064C139.599 17.2261 139.069 19.3459 138.554 21.4657C138.067 23.5569 137.68 25.4475 137.393 27.1376C137.107 28.7704 136.821 30.3746 136.534 31.9501C136.419 32.609 136.291 33.2965 136.147 34.0126C136.033 34.7287 135.918 35.4306 135.804 36.1181C135.718 36.8056 135.632 37.4644 135.546 38.0946C135.46 38.7248 135.388 39.2978 135.331 39.8134C134.873 40.0426 134.443 40.2144 134.042 40.329C133.641 40.4722 133.283 40.5725 132.968 40.6298C132.595 40.7157 132.252 40.7587 131.936 40.7587C131.249 40.7587 130.819 40.6728 130.647 40.5009C130.504 40.3577 130.49 40.0569 130.604 39.5985C130.69 39.1975 130.948 38.109 131.378 36.3329C131.55 35.5881 131.765 34.6428 132.022 33.497C132.309 32.3798 132.638 31.0191 133.011 29.4149C133.383 27.7821 133.827 25.8915 134.343 23.7431C134.858 21.566 135.446 19.0738 136.104 16.2665L138.983 4.3212C138.124 4.43578 137.279 4.56469 136.448 4.70792C135.617 4.85115 134.83 5.0087 134.085 5.18057C133.369 5.3238 132.71 5.46703 132.108 5.61026C131.535 5.75349 131.077 5.86807 130.733 5.95401ZM169.592 23.3993C169.793 23.1702 169.994 23.0556 170.194 23.0556C170.423 23.0269 170.595 23.0842 170.71 23.2274C170.853 23.342 170.91 23.5282 170.882 23.786C170.882 24.0439 170.767 24.3303 170.538 24.6454C169.994 25.3902 169.363 26.1636 168.647 26.9657C167.931 27.7392 167.158 28.4983 166.327 29.2431C165.525 29.9879 164.708 30.6897 163.878 31.3485C163.047 32.0074 162.245 32.5517 161.471 32.9814C160.612 33.4683 159.882 33.7118 159.28 33.7118C158.707 33.7118 158.134 33.3394 157.561 32.5946C157.046 31.9358 156.788 31.234 156.788 30.4892C156.816 29.7157 156.988 28.7561 157.303 27.6103C157.504 26.8941 157.776 26.0491 158.12 25.0751C158.492 24.0725 158.779 23.1129 158.979 22.1962C159.208 21.2795 159.28 20.5061 159.194 19.8759C159.108 19.217 158.736 18.8876 158.077 18.8876C157.619 18.8876 157.117 19.0452 156.573 19.3603C156.057 19.6754 155.527 20.0907 154.983 20.6064C154.467 21.0933 153.966 21.6519 153.479 22.2821C152.992 22.9123 152.563 23.5282 152.19 24.1298C151.961 25.247 151.732 26.3498 151.503 27.4384C151.302 28.3551 151.087 29.3577 150.858 30.4462C150.658 31.5061 150.457 32.4514 150.257 33.2821C150.085 33.4254 149.898 33.5256 149.698 33.5829C149.497 33.6402 149.311 33.6689 149.139 33.6689C148.939 33.6689 148.738 33.6545 148.538 33.6259C148.309 33.5686 148.094 33.4827 147.893 33.3681C147.721 33.2535 147.55 33.0959 147.378 32.8954C147.206 32.7235 147.077 32.4801 146.991 32.1649C148.28 26.8655 149.297 22.6116 150.042 19.4032C150.787 16.1949 151.359 13.7457 151.76 12.0556C152.219 10.0504 152.534 8.66104 152.706 7.8876C152.792 7.34333 152.863 6.81339 152.921 6.29776C152.978 5.83943 153.007 5.36677 153.007 4.87979C153.007 4.39281 152.964 3.9488 152.878 3.54776C153.107 3.40453 153.35 3.28995 153.608 3.20401C153.895 3.11807 154.167 3.04646 154.425 2.98917C154.74 2.90323 155.055 2.83161 155.37 2.77432C155.685 2.71703 155.971 2.68839 156.229 2.68839C156.458 2.68839 156.673 2.71703 156.874 2.77432C157.074 2.80297 157.203 2.88891 157.26 3.03214C157.432 3.17536 157.504 3.46182 157.475 3.89151C157.475 4.3212 157.447 4.76521 157.389 5.22354C157.275 5.76781 157.146 6.35505 157.003 6.98526C156.401 9.30557 155.728 11.5686 154.983 13.7743C154.238 15.9514 153.551 18.286 152.921 20.7782C153.293 20.2053 153.737 19.6181 154.253 19.0165C154.768 18.4149 155.327 17.8707 155.928 17.3837C156.559 16.8681 157.217 16.4527 157.905 16.1376C158.592 15.7939 159.323 15.622 160.096 15.622C160.497 15.622 160.87 15.6936 161.214 15.8368C161.586 15.9514 161.901 16.1662 162.159 16.4814C162.445 16.7678 162.66 17.1689 162.803 17.6845C162.947 18.1715 163.004 18.7873 162.975 19.5321C162.975 19.9905 162.918 20.4631 162.803 20.9501C162.717 21.4371 162.589 21.9814 162.417 22.5829C162.245 23.1558 162.016 23.8004 161.729 24.5165C161.471 25.2327 161.156 26.0634 160.784 27.0087C160.526 27.6676 160.326 28.2261 160.182 28.6845C160.039 29.1428 160.068 29.5439 160.268 29.8876C160.526 30.3459 161.027 30.4605 161.772 30.2314C162.546 29.9735 163.691 29.2287 165.21 27.997C165.553 27.7105 165.94 27.3524 166.37 26.9228C166.8 26.4931 167.215 26.0634 167.616 25.6337C168.017 25.1754 168.389 24.7457 168.733 24.3446C169.077 23.9436 169.363 23.6285 169.592 23.3993ZM188.042 23.9149C187.182 25.1754 186.208 26.4071 185.12 27.6103C184.031 28.7847 182.871 29.8446 181.639 30.7899C180.436 31.7066 179.19 32.4514 177.901 33.0243C176.641 33.5972 175.409 33.8837 174.206 33.8837C173.575 33.8837 172.888 33.7261 172.143 33.411C171.427 33.1246 170.768 32.6662 170.167 32.036C169.565 31.4058 169.078 30.5894 168.706 29.5868C168.362 28.5842 168.262 27.3668 168.405 25.9345C168.519 24.76 168.878 23.5282 169.479 22.2392C170.109 20.9215 170.868 19.7183 171.756 18.6298C172.673 17.5412 173.69 16.6389 174.807 15.9228C175.953 15.2066 177.099 14.8485 178.245 14.8485C179.333 14.8485 180.121 15.1207 180.608 15.6649C181.095 16.2092 181.31 16.8824 181.253 17.6845C181.167 18.5725 180.909 19.3889 180.479 20.1337C180.078 20.8785 179.591 21.5517 179.018 22.1532C178.445 22.7548 177.829 23.2991 177.17 23.786C176.54 24.273 175.939 24.717 175.366 25.1181C174.736 25.5478 174.134 25.9631 173.561 26.3642C172.988 26.7366 172.487 27.0803 172.057 27.3954C172.086 28.1116 172.215 28.7131 172.444 29.2001C172.673 29.6871 172.96 30.0881 173.303 30.4032C173.647 30.6897 174.034 30.9045 174.463 31.0478C174.922 31.1623 175.38 31.2196 175.838 31.2196C176.812 31.2196 177.829 30.9189 178.889 30.3173C179.949 29.6871 180.98 28.9423 181.983 28.0829C183.014 27.1949 183.96 26.2782 184.819 25.3329C185.707 24.3876 186.437 23.5712 187.01 22.8837C187.211 22.6545 187.411 22.5256 187.612 22.497C187.841 22.4397 188.013 22.4683 188.128 22.5829C188.271 22.6689 188.342 22.8407 188.342 23.0985C188.342 23.3277 188.242 23.5998 188.042 23.9149ZM177.042 17.2978C176.698 17.2978 176.282 17.4696 175.795 17.8134C175.337 18.1571 174.879 18.6584 174.42 19.3173C173.962 19.9475 173.532 20.7353 173.131 21.6806C172.73 22.5972 172.43 23.6571 172.229 24.8603C172.573 24.6024 172.945 24.3446 173.346 24.0868C173.747 23.8004 174.148 23.4996 174.549 23.1845C175.781 22.2392 176.641 21.4084 177.128 20.6923C177.614 19.9761 177.887 19.3603 177.944 18.8446C178.001 18.3004 177.944 17.9136 177.772 17.6845C177.6 17.4267 177.357 17.2978 177.042 17.2978ZM204.787 41.0595C203.957 41.0595 203.183 40.6871 202.467 39.9423C201.78 39.2261 201.207 38.1806 200.748 36.8056C200.319 35.4592 200.003 33.7978 199.803 31.8212C199.631 29.816 199.645 27.5386 199.846 24.9892C199.961 23.2991 200.19 21.5803 200.533 19.8329C200.877 18.0569 201.264 16.3524 201.694 14.7196C202.123 13.0582 202.582 11.497 203.069 10.036C203.556 8.5751 204 7.28604 204.401 6.16885C204.83 5.02302 205.174 4.10635 205.432 3.41885C205.718 2.73135 205.89 2.33031 205.947 2.21573C206.033 2.0725 206.191 1.92927 206.42 1.78604C206.678 1.61417 206.964 1.47094 207.28 1.35635C207.623 1.24177 207.981 1.15583 208.354 1.09854C208.755 1.0126 209.127 0.969635 209.471 0.969635C209.757 0.969635 210.03 0.983958 210.287 1.0126C210.517 1.04125 210.746 1.08422 210.975 1.14151C211.204 1.1988 211.405 1.28474 211.576 1.39932C211.261 1.59984 210.946 1.91495 210.631 2.34464C210.345 2.74568 210.072 3.17536 209.815 3.6337C209.5 4.14932 209.213 4.70792 208.955 5.30948C208.382 6.5126 207.781 7.97354 207.151 9.69229C206.52 11.411 205.919 13.2444 205.346 15.1923C204.802 17.1116 204.315 19.0738 203.885 21.079C203.484 23.0556 203.212 24.9176 203.069 26.6649C202.839 30.1884 202.968 32.8095 203.455 34.5282C203.942 36.2756 204.63 37.1493 205.518 37.1493C205.947 37.1493 206.406 36.8772 206.893 36.3329C207.38 35.7886 207.867 35.0868 208.354 34.2274C208.869 33.3681 209.371 32.4084 209.858 31.3485C210.345 30.2886 210.803 29.2431 211.233 28.2118C211.49 27.553 211.763 26.8225 212.049 26.0204C212.364 25.1897 212.665 24.3446 212.951 23.4853C213.267 22.6259 213.567 21.7808 213.854 20.9501C214.14 20.0907 214.398 19.3173 214.627 18.6298C214.627 17.7704 214.642 16.8681 214.67 15.9228C214.699 14.9488 214.756 13.9748 214.842 13.0009C214.957 11.9983 215.1 11.0243 215.272 10.079C215.444 9.10505 215.673 8.21703 215.959 7.41495C216.532 5.86807 217.205 4.73656 217.979 4.02042C218.752 3.27562 219.425 2.88891 219.998 2.86026C220.399 2.86026 220.686 3.03214 220.858 3.37589C221.03 3.71964 221.101 4.17797 221.072 4.75089C221.015 5.49568 220.886 6.39802 220.686 7.45792C220.485 8.48917 220.242 9.60635 219.955 10.8095C219.697 11.984 219.397 13.1871 219.053 14.4189C218.709 15.622 218.38 16.7821 218.065 17.8993C217.549 20.8498 217.234 23.5282 217.119 25.9345C217.005 28.3121 217.019 30.3603 217.162 32.079C217.334 33.7691 217.606 35.0725 217.979 35.9892C218.38 36.9345 218.852 37.4071 219.397 37.4071C220.027 37.4071 220.686 36.9774 221.373 36.1181C222.089 35.2587 222.791 34.1272 223.479 32.7235C224.166 31.2912 224.825 29.6728 225.455 27.8681C226.114 26.0634 226.701 24.2157 227.217 22.3251C227.761 20.4058 228.205 18.5295 228.549 16.6962C228.893 14.8342 229.122 13.1584 229.237 11.6689C229.322 10.4371 229.365 9.21964 229.365 8.01651C229.365 6.98526 229.322 5.8824 229.237 4.70792C229.151 3.53344 228.993 2.47354 228.764 1.52823C229.136 1.21312 229.638 0.955312 230.268 0.754791C230.583 0.640208 230.927 0.539948 231.299 0.45401C231.528 0.396718 231.772 0.35375 232.03 0.325104C232.259 0.296458 232.488 0.282135 232.717 0.282135C232.946 0.253489 233.161 0.267812 233.362 0.325104C233.533 0.726145 233.648 1.24177 233.705 1.87198C233.791 2.50219 233.849 3.11807 233.877 3.71964C233.906 4.43578 233.892 5.18057 233.834 5.95401C233.605 8.99047 233.204 11.9696 232.631 14.8915C232.087 17.8134 231.414 20.592 230.612 23.2274C229.809 25.8342 228.907 28.2405 227.905 30.4462C226.931 32.6233 225.914 34.5139 224.854 36.1181C223.822 37.7222 222.777 38.9683 221.717 39.8564C220.686 40.7444 219.697 41.1884 218.752 41.1884C217.75 41.1884 216.947 40.7587 216.346 39.8993C215.744 39.0686 215.286 38.0087 214.971 36.7196C214.656 35.4592 214.455 34.0985 214.369 32.6376C214.283 31.1767 214.255 29.8303 214.283 28.5985C213.625 30.2027 212.908 31.7496 212.135 33.2392C211.39 34.7287 210.602 36.0465 209.772 37.1923C208.97 38.3668 208.139 39.2978 207.28 39.9853C206.449 40.7014 205.618 41.0595 204.787 41.0595ZM254.69 23.9149C253.83 25.1754 252.856 26.4071 251.768 27.6103C250.679 28.7847 249.519 29.8446 248.287 30.7899C247.084 31.7066 245.838 32.4514 244.549 33.0243C243.288 33.5972 242.057 33.8837 240.854 33.8837C240.223 33.8837 239.536 33.7261 238.791 33.411C238.075 33.1246 237.416 32.6662 236.815 32.036C236.213 31.4058 235.726 30.5894 235.354 29.5868C235.01 28.5842 234.91 27.3668 235.053 25.9345C235.167 24.76 235.525 23.5282 236.127 22.2392C236.757 20.9215 237.516 19.7183 238.404 18.6298C239.321 17.5412 240.338 16.6389 241.455 15.9228C242.601 15.2066 243.747 14.8485 244.893 14.8485C245.981 14.8485 246.769 15.1207 247.256 15.6649C247.743 16.2092 247.958 16.8824 247.9 17.6845C247.815 18.5725 247.557 19.3889 247.127 20.1337C246.726 20.8785 246.239 21.5517 245.666 22.1532C245.093 22.7548 244.477 23.2991 243.818 23.786C243.188 24.273 242.587 24.717 242.014 25.1181C241.384 25.5478 240.782 25.9631 240.209 26.3642C239.636 26.7366 239.135 27.0803 238.705 27.3954C238.734 28.1116 238.863 28.7131 239.092 29.2001C239.321 29.6871 239.607 30.0881 239.951 30.4032C240.295 30.6897 240.682 30.9045 241.111 31.0478C241.57 31.1623 242.028 31.2196 242.486 31.2196C243.46 31.2196 244.477 30.9189 245.537 30.3173C246.597 29.6871 247.628 28.9423 248.631 28.0829C249.662 27.1949 250.607 26.2782 251.467 25.3329C252.355 24.3876 253.085 23.5712 253.658 22.8837C253.859 22.6545 254.059 22.5256 254.26 22.497C254.489 22.4397 254.661 22.4683 254.775 22.5829C254.919 22.6689 254.99 22.8407 254.99 23.0985C254.99 23.3277 254.89 23.5998 254.69 23.9149ZM243.69 17.2978C243.346 17.2978 242.93 17.4696 242.443 17.8134C241.985 18.1571 241.527 18.6584 241.068 19.3173C240.61 19.9475 240.18 20.7353 239.779 21.6806C239.378 22.5972 239.078 23.6571 238.877 24.8603C239.221 24.6024 239.593 24.3446 239.994 24.0868C240.395 23.8004 240.796 23.4996 241.197 23.1845C242.429 22.2392 243.288 21.4084 243.775 20.6923C244.262 19.9761 244.535 19.3603 244.592 18.8446C244.649 18.3004 244.592 17.9136 244.42 17.6845C244.248 17.4267 244.005 17.2978 243.69 17.2978ZM274.299 24.3017C273.898 24.8746 273.382 25.5907 272.752 26.4501C272.122 27.2808 271.463 28.1259 270.775 28.9853C270.116 29.816 269.458 30.5894 268.799 31.3056C268.169 31.9931 267.639 32.4801 267.209 32.7665C266.922 32.9384 266.593 33.0816 266.221 33.1962C265.848 33.3108 265.462 33.3824 265.06 33.411C264.688 33.4397 264.33 33.411 263.986 33.3251C263.643 33.2678 263.342 33.1532 263.084 32.9814C262.826 32.7808 262.611 32.4944 262.439 32.122C262.296 31.8069 262.153 31.3915 262.01 30.8759C261.895 30.3603 261.852 29.7157 261.881 28.9423C261.193 30.0881 260.434 30.9761 259.603 31.6064C258.773 32.2079 257.985 32.6519 257.24 32.9384C256.381 33.2535 255.521 33.4397 254.662 33.497C254.261 33.497 253.831 33.3537 253.373 33.0673C252.915 32.8095 252.528 32.3941 252.213 31.8212C251.898 31.2196 251.697 30.4605 251.611 29.5439C251.525 28.5985 251.64 27.4814 251.955 26.1923C252.356 24.4449 252.986 22.8551 253.846 21.4228C254.734 19.9905 255.693 18.773 256.725 17.7704C257.756 16.7392 258.773 15.9657 259.775 15.4501C260.778 14.9345 261.609 14.7053 262.268 14.7626C263.041 14.9058 263.671 15.135 264.158 15.4501C264.559 15.7366 264.817 16.1662 264.932 16.7392C265.075 17.2834 264.846 18.0139 264.244 18.9306C264.645 18.8446 264.975 18.7873 265.232 18.7587C265.519 18.7301 265.734 18.7157 265.877 18.7157C266.049 18.7157 266.163 18.7301 266.221 18.7587C266.249 18.816 266.264 18.9449 266.264 19.1454C266.264 19.3173 266.221 19.6467 266.135 20.1337C266.049 20.6207 265.92 21.2795 265.748 22.1103C265.576 22.941 265.347 24.0152 265.06 25.3329C265.003 25.5907 264.946 25.8342 264.889 26.0634C264.86 26.2639 264.817 26.4787 264.76 26.7079C264.731 26.9084 264.688 27.1519 264.631 27.4384C264.573 27.7248 264.502 28.0829 264.416 28.5126C264.387 28.7704 264.373 29.0569 264.373 29.372C264.402 29.6584 264.459 29.9306 264.545 30.1884C264.631 30.4462 264.76 30.661 264.932 30.8329C265.132 30.9761 265.404 31.0478 265.748 31.0478C266.034 31.0478 266.407 30.8759 266.865 30.5321C267.323 30.1597 267.81 29.7014 268.326 29.1571C268.842 28.5842 269.372 27.9683 269.916 27.3095C270.489 26.622 271.019 25.9631 271.506 25.3329C271.993 24.7027 272.422 24.1441 272.795 23.6571C273.196 23.1702 273.482 22.8121 273.654 22.5829C273.883 22.3251 274.113 22.1819 274.342 22.1532C274.571 22.0959 274.743 22.1532 274.857 22.3251C274.972 22.497 274.986 22.7548 274.9 23.0985C274.843 23.4423 274.643 23.8433 274.299 24.3017ZM261.709 26.1923C261.852 25.6194 262.024 24.9462 262.225 24.1728C262.425 23.3993 262.597 22.6545 262.74 21.9384C262.883 21.2222 262.984 20.635 263.041 20.1767C263.127 19.6897 263.113 19.4605 262.998 19.4892C262.855 19.5178 262.697 19.5608 262.525 19.6181C262.382 19.6754 262.196 19.7183 261.967 19.747C261.738 19.7756 261.508 19.8186 261.279 19.8759C261.508 19.4176 261.637 19.0452 261.666 18.7587C261.723 18.4436 261.738 18.2001 261.709 18.0282C261.68 17.8277 261.623 17.6702 261.537 17.5556C261.222 17.2978 260.663 17.5126 259.861 18.2001C259.088 18.859 258.185 20.0907 257.154 21.8954C256.725 22.6402 256.381 23.4423 256.123 24.3017C255.865 25.1324 255.679 25.9202 255.564 26.6649C255.478 27.4097 255.464 28.0686 255.521 28.6415C255.579 29.1858 255.693 29.5439 255.865 29.7157C256.18 30.0308 256.538 30.1884 256.939 30.1884C257.34 30.1597 257.741 30.0452 258.143 29.8446C258.572 29.6155 258.988 29.329 259.389 28.9853C259.818 28.6415 260.191 28.2834 260.506 27.911C260.85 27.5386 261.122 27.1949 261.322 26.8798C261.551 26.5647 261.68 26.3355 261.709 26.1923ZM287.935 21.9814C288.05 21.8095 288.193 21.7092 288.365 21.6806C288.566 21.6233 288.723 21.6376 288.838 21.7235C288.952 21.8095 289.01 21.9527 289.01 22.1532C289.038 22.3537 288.967 22.6259 288.795 22.9696C288.222 24.0582 287.463 25.2327 286.517 26.4931C285.601 27.7535 284.627 28.9423 283.595 30.0595C282.564 31.148 281.562 32.0504 280.588 32.7665C279.614 33.4827 278.797 33.8407 278.138 33.8407C277.193 33.8407 276.405 33.6545 275.775 33.2821C275.145 32.9097 274.644 32.4514 274.271 31.9071C273.927 31.3629 273.684 30.7756 273.541 30.1454C273.398 29.4866 273.355 28.885 273.412 28.3407C273.441 27.8824 273.541 27.066 273.713 25.8915C273.885 24.6884 274.114 23.3134 274.4 21.7665C274.687 20.191 275.002 18.5152 275.345 16.7392C275.718 14.9345 276.105 13.2014 276.506 11.5399C276.019 11.5972 275.532 11.6545 275.045 11.7118C274.558 11.7691 274.114 11.7978 273.713 11.7978C272.796 11.7978 271.937 11.6975 271.135 11.497C270.304 11.2678 269.688 11.053 269.287 10.8524C269.058 10.7379 268.957 10.5803 268.986 10.3798C269.015 10.1506 269.101 9.93578 269.244 9.73526C269.387 9.50609 269.573 9.3199 269.802 9.17667C270.003 9.00479 270.189 8.91885 270.361 8.91885C270.905 8.97615 271.493 9.03344 272.123 9.09073C272.753 9.11937 273.441 9.11937 274.185 9.09073C274.73 9.06208 275.245 9.01911 275.732 8.96182C276.248 8.90453 276.749 8.83292 277.236 8.74698C277.608 7.37198 277.967 6.18318 278.31 5.18057C278.683 4.14932 279.012 3.43318 279.299 3.03214C279.385 2.88891 279.571 2.77432 279.857 2.68839C280.172 2.5738 280.502 2.50219 280.845 2.47354C281.189 2.41625 281.519 2.41625 281.834 2.47354C282.149 2.50219 282.378 2.60245 282.521 2.77432C282.664 3.00349 282.722 3.59073 282.693 4.53604C282.664 5.48135 282.507 6.68448 282.22 8.14542C283.424 8.14542 284.483 8.21703 285.4 8.36026C286.345 8.47484 287.148 8.61807 287.806 8.78995C288.465 8.93318 288.995 9.09073 289.396 9.2626C289.797 9.40583 290.098 9.50609 290.299 9.56339C290.499 9.62068 290.599 9.76391 290.599 9.99307C290.628 10.2222 290.585 10.4657 290.47 10.7235C290.385 10.9527 290.227 11.1532 289.998 11.3251C289.769 11.497 289.511 11.5543 289.224 11.497C288.938 11.4683 288.608 11.411 288.236 11.3251C287.892 11.2392 287.463 11.1676 286.947 11.1103C286.46 11.053 285.873 10.9957 285.185 10.9384C284.498 10.8811 283.696 10.8524 282.779 10.8524C282.607 10.8524 282.407 10.8668 282.177 10.8954C281.977 10.8954 281.762 10.8954 281.533 10.8954C281.418 11.3537 281.304 11.8121 281.189 12.2704C281.103 12.7001 280.974 13.1584 280.802 13.6454C280.43 14.7912 280 16.0373 279.513 17.3837C279.084 18.5582 278.568 19.9045 277.967 21.4228C277.365 22.941 276.692 24.5595 275.947 26.2782C275.775 27.51 275.789 28.4553 275.99 29.1142C276.219 29.7444 276.491 30.2027 276.806 30.4892C277.179 30.8043 277.637 30.9761 278.181 31.0048C278.611 31.0621 279.127 30.9189 279.728 30.5751C280.358 30.2027 281.003 29.7157 281.662 29.1142C282.321 28.5126 282.98 27.8537 283.638 27.1376C284.326 26.4215 284.956 25.7196 285.529 25.0321C286.102 24.3446 286.603 23.7287 287.033 23.1845C287.463 22.6116 287.763 22.2105 287.935 21.9814ZM308.189 23.3993C308.39 23.1702 308.59 23.0556 308.791 23.0556C309.02 23.0269 309.192 23.0842 309.306 23.2274C309.449 23.342 309.507 23.5282 309.478 23.786C309.478 24.0439 309.364 24.3303 309.134 24.6454C308.59 25.3902 307.96 26.1636 307.244 26.9657C306.528 27.7392 305.754 28.4983 304.923 29.2431C304.121 29.9879 303.305 30.6897 302.474 31.3485C301.643 32.0074 300.841 32.5517 300.068 32.9814C299.209 33.4683 298.478 33.7118 297.877 33.7118C297.304 33.7118 296.731 33.3394 296.158 32.5946C295.642 31.9358 295.384 31.234 295.384 30.4892C295.413 29.7157 295.585 28.7561 295.9 27.6103C296.101 26.8941 296.373 26.0491 296.716 25.0751C297.089 24.0725 297.375 23.1129 297.576 22.1962C297.805 21.2795 297.877 20.5061 297.791 19.8759C297.705 19.217 297.332 18.8876 296.673 18.8876C296.215 18.8876 295.714 19.0452 295.17 19.3603C294.654 19.6754 294.124 20.0907 293.58 20.6064C293.064 21.0933 292.563 21.6519 292.076 22.2821C291.589 22.9123 291.159 23.5282 290.787 24.1298C290.558 25.247 290.328 26.3498 290.099 27.4384C289.899 28.3551 289.684 29.3577 289.455 30.4462C289.254 31.5061 289.054 32.4514 288.853 33.2821C288.681 33.4254 288.495 33.5256 288.295 33.5829C288.094 33.6402 287.908 33.6689 287.736 33.6689C287.535 33.6689 287.335 33.6545 287.134 33.6259C286.905 33.5686 286.69 33.4827 286.49 33.3681C286.318 33.2535 286.146 33.0959 285.974 32.8954C285.802 32.7235 285.673 32.4801 285.587 32.1649C286.877 26.8655 287.893 22.6116 288.638 19.4032C289.383 16.1949 289.956 13.7457 290.357 12.0556C290.815 10.0504 291.13 8.66104 291.302 7.8876C291.388 7.34333 291.46 6.81339 291.517 6.29776C291.574 5.83943 291.603 5.36677 291.603 4.87979C291.603 4.39281 291.56 3.9488 291.474 3.54776C291.703 3.40453 291.947 3.28995 292.205 3.20401C292.491 3.11807 292.763 3.04646 293.021 2.98917C293.336 2.90323 293.651 2.83161 293.966 2.77432C294.282 2.71703 294.568 2.68839 294.826 2.68839C295.055 2.68839 295.27 2.71703 295.47 2.77432C295.671 2.80297 295.8 2.88891 295.857 3.03214C296.029 3.17536 296.101 3.46182 296.072 3.89151C296.072 4.3212 296.043 4.76521 295.986 5.22354C295.871 5.76781 295.742 6.35505 295.599 6.98526C294.998 9.30557 294.324 11.5686 293.58 13.7743C292.835 15.9514 292.147 18.286 291.517 20.7782C291.89 20.2053 292.334 19.6181 292.849 19.0165C293.365 18.4149 293.923 17.8707 294.525 17.3837C295.155 16.8681 295.814 16.4527 296.502 16.1376C297.189 15.7939 297.92 15.622 298.693 15.622C299.094 15.622 299.466 15.6936 299.81 15.8368C300.183 15.9514 300.498 16.1662 300.755 16.4814C301.042 16.7678 301.257 17.1689 301.4 17.6845C301.543 18.1715 301.601 18.7873 301.572 19.5321C301.572 19.9905 301.515 20.4631 301.4 20.9501C301.314 21.4371 301.185 21.9814 301.013 22.5829C300.841 23.1558 300.612 23.8004 300.326 24.5165C300.068 25.2327 299.753 26.0634 299.38 27.0087C299.123 27.6676 298.922 28.2261 298.779 28.6845C298.636 29.1428 298.664 29.5439 298.865 29.8876C299.123 30.3459 299.624 30.4605 300.369 30.2314C301.142 29.9735 302.288 29.2287 303.806 27.997C304.15 27.7105 304.537 27.3524 304.966 26.9228C305.396 26.4931 305.811 26.0634 306.212 25.6337C306.614 25.1754 306.986 24.7457 307.33 24.3446C307.673 23.9436 307.96 23.6285 308.189 23.3993ZM326.638 23.9149C325.779 25.1754 324.805 26.4071 323.716 27.6103C322.628 28.7847 321.468 29.8446 320.236 30.7899C319.033 31.7066 317.787 32.4514 316.497 33.0243C315.237 33.5972 314.005 33.8837 312.802 33.8837C312.172 33.8837 311.484 33.7261 310.74 33.411C310.024 33.1246 309.365 32.6662 308.763 32.036C308.162 31.4058 307.675 30.5894 307.302 29.5868C306.958 28.5842 306.858 27.3668 307.001 25.9345C307.116 24.76 307.474 23.5282 308.076 22.2392C308.706 20.9215 309.465 19.7183 310.353 18.6298C311.27 17.5412 312.287 16.6389 313.404 15.9228C314.55 15.2066 315.695 14.8485 316.841 14.8485C317.93 14.8485 318.718 15.1207 319.205 15.6649C319.692 16.2092 319.906 16.8824 319.849 17.6845C319.763 18.5725 319.505 19.3889 319.076 20.1337C318.675 20.8785 318.188 21.5517 317.615 22.1532C317.042 22.7548 316.426 23.2991 315.767 23.786C315.137 24.273 314.535 24.717 313.962 25.1181C313.332 25.5478 312.731 25.9631 312.158 26.3642C311.585 26.7366 311.083 27.0803 310.654 27.3954C310.682 28.1116 310.811 28.7131 311.04 29.2001C311.27 29.6871 311.556 30.0881 311.9 30.4032C312.244 30.6897 312.63 30.9045 313.06 31.0478C313.518 31.1623 313.977 31.2196 314.435 31.2196C315.409 31.2196 316.426 30.9189 317.486 30.3173C318.546 29.6871 319.577 28.9423 320.58 28.0829C321.611 27.1949 322.556 26.2782 323.415 25.3329C324.303 24.3876 325.034 23.5712 325.607 22.8837C325.807 22.6545 326.008 22.5256 326.208 22.497C326.438 22.4397 326.609 22.4683 326.724 22.5829C326.867 22.6689 326.939 22.8407 326.939 23.0985C326.939 23.3277 326.839 23.5998 326.638 23.9149ZM315.638 17.2978C315.294 17.2978 314.879 17.4696 314.392 17.8134C313.934 18.1571 313.475 18.6584 313.017 19.3173C312.559 19.9475 312.129 20.7353 311.728 21.6806C311.327 22.5972 311.026 23.6571 310.826 24.8603C311.169 24.6024 311.542 24.3446 311.943 24.0868C312.344 23.8004 312.745 23.4996 313.146 23.1845C314.378 22.2392 315.237 21.4084 315.724 20.6923C316.211 19.9761 316.483 19.3603 316.54 18.8446C316.598 18.3004 316.54 17.9136 316.369 17.6845C316.197 17.4267 315.953 17.2978 315.638 17.2978ZM322.572 32.6376C322.371 32.9527 322.156 33.1532 321.927 33.2392C321.669 33.3537 321.454 33.3681 321.283 33.2821C321.082 33.2248 320.953 33.0816 320.896 32.8524C320.838 32.6233 320.896 32.3368 321.068 31.9931C321.154 31.8212 321.354 31.4345 321.669 30.8329C321.956 30.2314 322.314 29.5152 322.743 28.6845C323.144 27.8251 323.588 26.9084 324.075 25.9345C324.562 24.9319 325.021 23.9866 325.45 23.0985C325.909 22.2105 326.324 21.4228 326.697 20.7353C327.069 20.0191 327.341 19.5035 327.513 19.1884C327.198 18.9019 326.983 18.7014 326.868 18.5868C326.754 18.4436 326.668 18.1571 326.611 17.7274C326.553 17.3551 326.639 16.8681 326.868 16.2665C327.098 15.6649 327.398 15.092 327.771 14.5478C328.143 13.9748 328.559 13.4879 329.017 13.0868C329.475 12.6858 329.919 12.4853 330.349 12.4853C331.151 12.4853 331.71 12.7431 332.025 13.2587C332.368 13.7743 332.569 14.3043 332.626 14.8485C332.684 15.2209 332.655 15.6936 332.54 16.2665C332.426 16.8394 332.211 17.3551 331.896 17.8134C331.982 17.8707 332.096 17.9423 332.24 18.0282C332.383 18.0855 332.612 18.1142 332.927 18.1142C333.385 18.1142 333.7 18.0855 333.872 18.0282C334.073 17.9709 334.374 17.9423 334.775 17.9423C335.262 17.9423 335.663 18.0712 335.978 18.329C336.293 18.5582 336.551 18.859 336.751 19.2314C336.952 19.5751 337.095 19.9618 337.181 20.3915C337.296 20.7926 337.367 21.1649 337.396 21.5087C337.482 22.2248 337.296 22.9696 336.837 23.7431C336.379 24.5165 335.82 25.3616 335.161 26.2782C334.76 26.8511 334.359 27.4957 333.958 28.2118C333.557 28.928 333.385 29.5725 333.443 30.1454C333.5 30.5178 333.6 30.8186 333.743 31.0478C333.887 31.2769 334.288 31.3915 334.947 31.3915C335.434 31.3915 335.963 31.2196 336.536 30.8759C337.138 30.5035 337.74 30.0452 338.341 29.5009C338.971 28.928 339.587 28.3121 340.189 27.6532C340.79 26.9657 341.349 26.3069 341.865 25.6767C342.38 25.0178 342.81 24.4306 343.154 23.9149C343.526 23.3993 343.798 23.0269 343.97 22.7978C344.113 22.5686 344.299 22.411 344.529 22.3251C344.758 22.2392 344.958 22.2392 345.13 22.3251C345.302 22.411 345.402 22.5829 345.431 22.8407C345.488 23.0985 345.388 23.4423 345.13 23.872C344.958 24.1584 344.658 24.6168 344.228 25.247C343.827 25.8772 343.325 26.579 342.724 27.3524C342.151 28.1259 341.506 28.928 340.79 29.7587C340.074 30.5608 339.315 31.3056 338.513 31.9931C337.74 32.6519 336.952 33.1962 336.15 33.6259C335.376 34.0556 334.631 34.2704 333.915 34.2704C333.171 34.2704 332.555 34.1272 332.068 33.8407C331.581 33.5543 331.18 33.2105 330.865 32.8095C330.578 32.3798 330.363 31.9215 330.22 31.4345C330.105 30.9189 330.062 30.4462 330.091 30.0165C330.12 29.6728 330.206 29.3147 330.349 28.9423C330.521 28.5412 330.707 28.1402 330.908 27.7392C331.137 27.3095 331.366 26.8941 331.595 26.4931C331.853 26.0634 332.082 25.648 332.283 25.247C332.769 24.4162 333.156 23.7144 333.443 23.1415C333.758 22.5399 333.915 22.0386 333.915 21.6376C333.915 21.3798 333.858 21.1506 333.743 20.9501C333.629 20.7496 333.443 20.6493 333.185 20.6493C333.013 20.6493 332.884 20.6636 332.798 20.6923C332.741 20.6923 332.669 20.6923 332.583 20.6923C332.526 20.6923 332.426 20.7066 332.283 20.7353C332.168 20.7353 331.982 20.7353 331.724 20.7353C331.352 20.7353 331.036 20.678 330.779 20.5634C330.521 20.4488 330.277 20.3629 330.048 20.3056C329.934 20.5061 329.676 20.9358 329.275 21.5946C328.874 22.2535 328.401 23.0269 327.857 23.9149C327.341 24.803 326.783 25.734 326.181 26.7079C325.608 27.6819 325.064 28.5985 324.548 29.4579C324.033 30.2886 323.603 31.0048 323.259 31.6064C322.887 32.1793 322.658 32.523 322.572 32.6376ZM355.415 0.282135C356.131 0.282135 356.962 0.382395 357.907 0.582916C358.853 0.783437 359.726 1.14151 360.528 1.65714C361.359 2.17276 362.032 2.87458 362.548 3.7626C363.064 4.62198 363.235 5.71052 363.064 7.02823C362.777 9.14802 362.104 10.967 361.044 12.4853C360.013 14.0035 358.824 15.2782 357.478 16.3095C356.16 17.3121 354.814 18.0855 353.439 18.6298C352.092 19.1454 350.989 19.4748 350.13 19.6181L349.056 24.0439C348.941 24.5308 348.769 25.0178 348.54 25.5048C348.311 25.9631 347.996 26.3642 347.595 26.7079C347.222 27.0517 346.75 27.3238 346.177 27.5243C345.633 27.7248 344.988 27.7965 344.243 27.7392L346.435 19.0595C346.549 18.6011 346.778 18.2144 347.122 17.8993C347.495 17.5842 348.182 17.3121 349.185 17.0829C350.445 16.8537 351.706 16.467 352.966 15.9228C354.255 15.3785 355.415 14.5048 356.446 13.3017C356.733 12.9866 357.019 12.5998 357.306 12.1415C357.621 11.6545 357.922 11.1389 358.208 10.5946C358.495 10.0217 358.738 9.43448 358.939 8.83292C359.139 8.23135 359.282 7.62979 359.368 7.02823C359.454 6.48396 359.44 5.95401 359.325 5.43839C359.211 4.92276 358.982 4.47875 358.638 4.10635C358.294 3.73396 357.807 3.43318 357.177 3.20401C356.575 2.97484 355.802 2.86026 354.857 2.86026C354.112 2.86026 353.41 2.97484 352.751 3.20401C352.092 3.43318 351.519 3.74828 351.032 4.14932C350.545 4.52172 350.144 4.95141 349.829 5.43839C349.514 5.92536 349.328 6.42667 349.271 6.94229C349.242 7.2574 349.242 7.55818 349.271 7.84464C349.299 8.10245 349.357 8.36026 349.443 8.61807C349.528 8.87589 349.686 9.10505 349.915 9.30557C348.597 9.64932 347.623 9.70661 346.993 9.47745C346.363 9.21964 345.919 8.86156 345.661 8.40323C345.346 7.8876 345.217 7.22875 345.275 6.42667C345.418 5.33812 345.89 4.40714 346.693 3.6337C347.495 2.86026 348.411 2.23005 349.443 1.74307C350.502 1.22745 351.577 0.855052 352.665 0.625885C353.754 0.396718 354.67 0.282135 355.415 0.282135ZM345.79 29.7157C346.535 29.7157 347.165 29.8733 347.681 30.1884C348.196 30.5035 348.426 30.9475 348.368 31.5204C348.311 31.8355 348.182 32.1506 347.982 32.4657C347.781 32.7522 347.509 33.0243 347.165 33.2821C346.85 33.5399 346.478 33.7405 346.048 33.8837C345.618 34.0556 345.174 34.1415 344.716 34.1415C343.943 34.1415 343.298 33.9696 342.782 33.6259C342.267 33.3108 342.038 32.8811 342.095 32.3368C342.181 31.7066 342.51 31.1194 343.083 30.5751C343.685 30.0022 344.587 29.7157 345.79 29.7157Z" fill="#FBFBFB"/>
</g>
<path d="M367.515 35.459H366.384C366.072 35.459 365.812 35.251 365.604 34.835L364.382 32.352C364.278 32.1353 364.165 31.975 364.044 31.871C363.931 31.767 363.771 31.7107 363.563 31.702H361.912V34.484H363.082C363.186 34.484 363.238 34.536 363.238 34.64V35.303C363.238 35.407 363.186 35.459 363.082 35.459H359.793C359.68 35.459 359.624 35.407 359.624 35.303V34.64C359.624 34.536 359.68 34.484 359.793 34.484H360.781V27.1H359.793C359.68 27.1 359.624 27.048 359.624 26.944V26.281C359.624 26.177 359.68 26.125 359.793 26.125H363.797C364.724 26.125 365.478 26.372 366.059 26.866C366.64 27.3513 366.93 28.0403 366.93 28.933C366.93 30.2937 366.293 31.143 365.019 31.481C365.184 31.611 365.387 31.9013 365.63 32.352L366.722 34.484H367.515C367.619 34.484 367.671 34.536 367.671 34.64V35.303C367.671 35.407 367.619 35.459 367.515 35.459ZM361.912 30.779H363.576C365.049 30.779 365.786 30.1767 365.786 28.972C365.786 27.724 365.049 27.1 363.576 27.1H361.912V30.779ZM376.444 35.459H375.313C374.94 35.459 374.754 35.277 374.754 34.913V34.25H374.728C374.095 35.1253 373.25 35.563 372.193 35.563C371.569 35.563 371.058 35.4027 370.659 35.082C370.26 34.7527 370.061 34.3107 370.061 33.756C370.061 33.0453 370.369 32.5253 370.984 32.196C371.608 31.858 372.462 31.689 373.545 31.689H374.637V31.533C374.637 30.4497 374.074 29.908 372.947 29.908C372.418 29.908 372.037 29.96 371.803 30.064C371.569 30.1593 371.4 30.2373 371.296 30.298C371.201 30.3587 371.127 30.4063 371.075 30.441C370.945 30.545 370.85 30.5537 370.789 30.467L370.425 30.012C370.364 29.9427 370.373 29.8733 370.451 29.804C370.598 29.6133 370.902 29.427 371.361 29.245C371.82 29.063 372.362 28.972 372.986 28.972C374.806 28.972 375.716 29.8387 375.716 31.572V34.588H376.444C376.548 34.588 376.6 34.64 376.6 34.744V35.303C376.6 35.407 376.548 35.459 376.444 35.459ZM374.637 32.469H373.61C373.107 32.469 372.691 32.495 372.362 32.547C372.033 32.599 371.751 32.7117 371.517 32.885C371.292 33.0583 371.179 33.2967 371.179 33.6C371.179 33.9033 371.3 34.1547 371.543 34.354C371.794 34.5447 372.119 34.64 372.518 34.64C373.359 34.64 374.065 34.2673 374.637 33.522V32.469ZM382.074 35.459H379.591C379.478 35.459 379.422 35.407 379.422 35.303V34.744C379.422 34.64 379.478 34.588 379.591 34.588H380.306V29.934H379.591C379.478 29.934 379.422 29.882 379.422 29.778V29.219C379.422 29.115 379.478 29.063 379.591 29.063H381.229C381.333 29.063 381.385 29.115 381.385 29.219V34.588H382.074C382.187 34.588 382.243 34.64 382.243 34.744V35.303C382.243 35.407 382.187 35.459 382.074 35.459ZM381.333 27.139C381.48 27.2863 381.554 27.4597 381.554 27.659C381.554 27.8583 381.48 28.0273 381.333 28.166C381.194 28.3047 381.025 28.374 380.826 28.374C380.627 28.374 380.453 28.3047 380.306 28.166C380.167 28.0273 380.098 27.8583 380.098 27.659C380.098 27.4597 380.167 27.2863 380.306 27.139C380.453 26.9917 380.627 26.918 380.826 26.918C381.025 26.918 381.194 26.9917 381.333 27.139ZM391.967 35.459H390.732C390.359 35.459 390.173 35.277 390.173 34.913V31.494C390.173 30.9913 390.051 30.6013 389.809 30.324C389.566 30.0467 389.211 29.908 388.743 29.908C388.075 29.908 387.555 30.181 387.183 30.727C387.139 30.779 387.083 30.8743 387.014 31.013V34.588H387.703C387.815 34.588 387.872 34.64 387.872 34.744V35.303C387.872 35.407 387.815 35.459 387.703 35.459H385.22C385.107 35.459 385.051 35.407 385.051 35.303V34.744C385.051 34.64 385.107 34.588 385.22 34.588H385.935V29.934H385.22C385.107 29.934 385.051 29.882 385.051 29.778V29.219C385.051 29.115 385.107 29.063 385.22 29.063H386.741C386.853 29.063 386.91 29.115 386.91 29.219L386.884 30.103H386.923C387.373 29.349 388.071 28.972 389.016 28.972C389.709 28.972 390.251 29.1757 390.641 29.583C391.031 29.9903 391.23 30.5407 391.239 31.234V34.588H391.967C392.079 34.588 392.136 34.64 392.136 34.744V35.303C392.136 35.407 392.079 35.459 391.967 35.459ZM406.404 34.64C405.797 35.2467 405.022 35.55 404.077 35.55C403.132 35.55 402.357 35.251 401.75 34.653C401.143 34.0463 400.84 33.2447 400.84 32.248C400.84 31.2427 401.148 30.4453 401.763 29.856C402.378 29.2667 403.15 28.972 404.077 28.972C405.013 28.972 405.784 29.271 406.391 29.869C407.006 30.4583 407.314 31.2513 407.314 32.248C407.314 33.236 407.011 34.0333 406.404 34.64ZM401.932 32.248C401.932 32.9587 402.14 33.535 402.556 33.977C402.972 34.419 403.479 34.64 404.077 34.64C404.684 34.64 405.195 34.419 405.611 33.977C406.027 33.535 406.235 32.9587 406.235 32.248C406.235 31.5373 406.023 30.9653 405.598 30.532C405.182 30.0987 404.679 29.882 404.09 29.882C403.501 29.882 402.994 30.0987 402.569 30.532C402.144 30.9653 401.932 31.5373 401.932 32.248ZM412.752 35.459H410.269C410.156 35.459 410.1 35.407 410.1 35.303V34.744C410.1 34.64 410.156 34.588 410.269 34.588H410.984V29.934H410.269C410.156 29.934 410.1 29.882 410.1 29.778V29.219C410.1 29.115 410.156 29.063 410.269 29.063H411.79C411.902 29.063 411.959 29.115 411.959 29.219V30.844H411.998C412.024 30.7053 412.115 30.5147 412.271 30.272C412.427 30.0293 412.596 29.83 412.778 29.674C412.968 29.5093 413.237 29.362 413.584 29.232C413.939 29.102 414.338 29.037 414.78 29.037C414.892 29.037 414.949 29.0933 414.949 29.206V29.895C414.949 30.0077 414.892 30.064 414.78 30.064H414.507C413.761 30.064 413.168 30.3023 412.726 30.779C412.284 31.2557 412.063 31.7973 412.063 32.404V34.588H412.752C412.864 34.588 412.921 34.64 412.921 34.744V35.303C412.921 35.407 412.864 35.459 412.752 35.459ZM424.313 35.459H423.585C423.473 35.459 423.416 35.407 423.416 35.303V32.261C423.416 32.1483 423.473 32.092 423.585 32.092H424.404C424.508 32.092 424.56 32.1483 424.56 32.261V32.534C424.56 32.6987 424.66 32.9197 424.859 33.197C425.059 33.4657 425.258 33.6867 425.457 33.86C425.657 34.0333 425.921 34.185 426.25 34.315C426.588 34.4363 426.952 34.497 427.342 34.497C428.01 34.497 428.53 34.3583 428.902 34.081C429.284 33.8037 429.474 33.418 429.474 32.924C429.474 32.638 429.366 32.3953 429.149 32.196C428.941 31.988 428.668 31.8233 428.33 31.702C427.992 31.5807 427.615 31.468 427.199 31.364C426.792 31.26 426.38 31.143 425.964 31.013C425.557 30.8743 425.184 30.714 424.846 30.532C424.508 30.3413 424.231 30.0813 424.014 29.752C423.806 29.414 423.702 29.0197 423.702 28.569C423.702 27.841 423.975 27.2387 424.521 26.762C425.076 26.2853 425.817 26.047 426.744 26.047C427.914 26.047 428.772 26.3893 429.318 27.074L429.292 26.268C429.292 26.164 429.349 26.112 429.461 26.112H430.189C430.293 26.112 430.345 26.164 430.345 26.268V29.102C430.345 29.206 430.293 29.258 430.189 29.258H429.37C429.266 29.258 429.214 29.206 429.214 29.102V28.738C429.214 28.3827 429.015 28.023 428.616 27.659C428.218 27.295 427.633 27.113 426.861 27.113C426.289 27.113 425.826 27.2517 425.47 27.529C425.124 27.7977 424.95 28.1443 424.95 28.569C424.95 28.8723 425.059 29.1323 425.275 29.349C425.492 29.5657 425.774 29.739 426.12 29.869C426.467 29.999 426.848 30.1203 427.264 30.233C427.68 30.337 428.096 30.454 428.512 30.584C428.928 30.714 429.31 30.87 429.656 31.052C430.003 31.234 430.285 31.4853 430.501 31.806C430.718 32.118 430.826 32.4907 430.826 32.924C430.826 33.6867 430.553 34.315 430.007 34.809C429.461 35.303 428.647 35.55 427.563 35.55C426.766 35.55 426.107 35.3897 425.587 35.069C425.067 34.7483 424.69 34.4017 424.456 34.029L424.469 35.303C424.469 35.407 424.417 35.459 424.313 35.459ZM440.668 35.459H439.433C439.06 35.459 438.874 35.277 438.874 34.913V31.494C438.874 30.9913 438.753 30.6013 438.51 30.324C438.267 30.0467 437.912 29.908 437.444 29.908C437.089 29.908 436.816 29.9643 436.625 30.077C436.443 30.181 436.304 30.2763 436.209 30.363C436.114 30.441 436.036 30.519 435.975 30.597C435.871 30.7357 435.784 30.8787 435.715 31.026V34.588H436.404C436.517 34.588 436.573 34.64 436.573 34.744V35.303C436.573 35.407 436.517 35.459 436.404 35.459H433.921C433.808 35.459 433.752 35.407 433.752 35.303V34.744C433.752 34.64 433.808 34.588 433.921 34.588H434.636V26.996H433.921C433.808 26.996 433.752 26.944 433.752 26.84V26.281C433.752 26.177 433.808 26.125 433.921 26.125H435.559C435.663 26.125 435.715 26.177 435.715 26.281V29.18C435.715 29.466 435.698 29.7303 435.663 29.973H435.689C436.114 29.3057 436.79 28.972 437.717 28.972C438.41 28.972 438.952 29.1757 439.342 29.583C439.732 29.9903 439.931 30.5407 439.94 31.234V34.588H440.668C440.781 34.588 440.837 34.64 440.837 34.744V35.303C440.837 35.407 440.781 35.459 440.668 35.459ZM446.222 35.459H443.739C443.626 35.459 443.57 35.407 443.57 35.303V34.744C443.57 34.64 443.626 34.588 443.739 34.588H444.454V29.934H443.739C443.626 29.934 443.57 29.882 443.57 29.778V29.219C443.57 29.115 443.626 29.063 443.739 29.063H445.377C445.481 29.063 445.533 29.115 445.533 29.219V34.588H446.222C446.335 34.588 446.391 34.64 446.391 34.744V35.303C446.391 35.407 446.335 35.459 446.222 35.459ZM445.481 27.139C445.628 27.2863 445.702 27.4597 445.702 27.659C445.702 27.8583 445.628 28.0273 445.481 28.166C445.342 28.3047 445.173 28.374 444.974 28.374C444.775 28.374 444.601 28.3047 444.454 28.166C444.315 28.0273 444.246 27.8583 444.246 27.659C444.246 27.4597 444.315 27.2863 444.454 27.139C444.601 26.9917 444.775 26.918 444.974 26.918C445.173 26.918 445.342 26.9917 445.481 27.139ZM456.115 35.459H454.88C454.507 35.459 454.321 35.277 454.321 34.913V31.494C454.321 30.9913 454.199 30.6013 453.957 30.324C453.714 30.0467 453.359 29.908 452.891 29.908C452.223 29.908 451.703 30.181 451.331 30.727C451.287 30.779 451.231 30.8743 451.162 31.013V34.588H451.851C451.963 34.588 452.02 34.64 452.02 34.744V35.303C452.02 35.407 451.963 35.459 451.851 35.459H449.368C449.255 35.459 449.199 35.407 449.199 35.303V34.744C449.199 34.64 449.255 34.588 449.368 34.588H450.083V29.934H449.368C449.255 29.934 449.199 29.882 449.199 29.778V29.219C449.199 29.115 449.255 29.063 449.368 29.063H450.889C451.001 29.063 451.058 29.115 451.058 29.219L451.032 30.103H451.071C451.521 29.349 452.219 28.972 453.164 28.972C453.857 28.972 454.399 29.1757 454.789 29.583C455.179 29.9903 455.378 30.5407 455.387 31.234V34.588H456.115C456.227 34.588 456.284 34.64 456.284 34.744V35.303C456.284 35.407 456.227 35.459 456.115 35.459ZM464.535 32.391H459.855C459.89 33.1103 460.115 33.665 460.531 34.055C460.956 34.445 461.432 34.64 461.961 34.64C462.49 34.64 462.94 34.5273 463.313 34.302C463.694 34.0767 463.95 33.8557 464.08 33.639C464.149 33.5523 464.227 33.5393 464.314 33.6L464.665 33.951C464.717 34.003 464.743 34.0507 464.743 34.094C464.743 34.1287 464.721 34.1763 464.678 34.237C464.643 34.2977 464.565 34.393 464.444 34.523C464.323 34.653 464.149 34.8003 463.924 34.965C463.707 35.1297 463.421 35.2683 463.066 35.381C462.719 35.4937 462.347 35.55 461.948 35.55C461.038 35.55 460.275 35.251 459.66 34.653C459.053 34.055 458.75 33.2533 458.75 32.248C458.75 31.234 459.053 30.4367 459.66 29.856C460.267 29.2667 461.008 28.972 461.883 28.972C462.767 28.972 463.46 29.258 463.963 29.83C464.466 30.3933 464.717 31.156 464.717 32.118C464.717 32.1527 464.717 32.1873 464.717 32.222C464.717 32.3347 464.656 32.391 464.535 32.391ZM463.638 31.598C463.612 31.0607 463.443 30.6317 463.131 30.311C462.819 29.9903 462.403 29.83 461.883 29.83C461.363 29.83 460.917 29.9773 460.544 30.272C460.171 30.5667 459.95 31.0087 459.881 31.598H463.638ZM467.656 36.629V36.408C467.656 36.356 467.704 36.33 467.799 36.33C467.903 36.33 468.007 36.2693 468.111 36.148C468.224 36.0353 468.28 35.8663 468.28 35.641L468.254 35.485C468.202 35.5283 468.107 35.55 467.968 35.55C467.838 35.55 467.717 35.498 467.604 35.394C467.491 35.2813 467.435 35.1383 467.435 34.965C467.435 34.783 467.496 34.6357 467.617 34.523C467.738 34.4017 467.899 34.341 468.098 34.341C468.297 34.341 468.458 34.4233 468.579 34.588C468.709 34.7527 468.774 35.0343 468.774 35.433C468.774 35.823 468.679 36.1307 468.488 36.356C468.297 36.5813 468.05 36.694 467.747 36.694C467.686 36.694 467.656 36.6723 467.656 36.629ZM486.58 35.459H486.086C485.765 35.459 485.561 35.2857 485.475 34.939L483.967 28.335H483.928L482.446 34.939C482.359 35.2857 482.151 35.459 481.822 35.459H481.341C481.037 35.459 480.829 35.2857 480.717 34.939L478.338 27.1H477.519C477.406 27.1 477.35 27.048 477.35 26.944V26.281C477.35 26.177 477.406 26.125 477.519 26.125H480.444C480.556 26.125 480.613 26.177 480.613 26.281V26.944C480.613 27.048 480.556 27.1 480.444 27.1H479.534L481.549 34.081H481.627L483.434 26.125H484.474L486.294 34.081H486.372L488.387 27.1H487.464C487.36 27.1 487.308 27.048 487.308 26.944V26.281C487.308 26.177 487.36 26.125 487.464 26.125H490.402C490.506 26.125 490.558 26.177 490.558 26.281V26.944C490.558 27.048 490.506 27.1 490.402 27.1H489.57L487.191 34.939C487.087 35.2857 486.883 35.459 486.58 35.459ZM497.244 32.391H492.564C492.598 33.1103 492.824 33.665 493.24 34.055C493.664 34.445 494.141 34.64 494.67 34.64C495.198 34.64 495.649 34.5273 496.022 34.302C496.403 34.0767 496.659 33.8557 496.789 33.639C496.858 33.5523 496.936 33.5393 497.023 33.6L497.374 33.951C497.426 34.003 497.452 34.0507 497.452 34.094C497.452 34.1287 497.43 34.1763 497.387 34.237C497.352 34.2977 497.274 34.393 497.153 34.523C497.031 34.653 496.858 34.8003 496.633 34.965C496.416 35.1297 496.13 35.2683 495.775 35.381C495.428 35.4937 495.055 35.55 494.657 35.55C493.747 35.55 492.984 35.251 492.369 34.653C491.762 34.055 491.459 33.2533 491.459 32.248C491.459 31.234 491.762 30.4367 492.369 29.856C492.975 29.2667 493.716 28.972 494.592 28.972C495.476 28.972 496.169 29.258 496.672 29.83C497.174 30.3933 497.426 31.156 497.426 32.118C497.426 32.1527 497.426 32.1873 497.426 32.222C497.426 32.3347 497.365 32.391 497.244 32.391ZM496.347 31.598C496.321 31.0607 496.152 30.6317 495.84 30.311C495.528 29.9903 495.112 29.83 494.592 29.83C494.072 29.83 493.625 29.9773 493.253 30.272C492.88 30.5667 492.659 31.0087 492.59 31.598H496.347ZM500.063 28.088V27.867C500.063 27.815 500.111 27.789 500.206 27.789C500.302 27.789 500.401 27.7327 500.505 27.62C500.618 27.4987 500.674 27.3253 500.674 27.1L500.648 26.944C500.605 26.9873 500.514 27.009 500.375 27.009C500.237 27.009 500.111 26.9527 499.998 26.84C499.894 26.7273 499.842 26.5843 499.842 26.411C499.842 26.2377 499.899 26.0947 500.011 25.982C500.133 25.8607 500.293 25.8 500.492 25.8C500.692 25.8 500.856 25.8823 500.986 26.047C501.116 26.2117 501.181 26.4933 501.181 26.892C501.181 27.282 501.082 27.594 500.882 27.828C500.692 28.0533 500.445 28.166 500.141 28.166C500.089 28.166 500.063 28.14 500.063 28.088ZM507.729 35.459H506.858C506.772 35.459 506.711 35.446 506.676 35.42C506.642 35.3853 506.607 35.3203 506.572 35.225L504.505 29.934H503.777C503.673 29.934 503.621 29.882 503.621 29.778V29.219C503.621 29.115 503.673 29.063 503.777 29.063H506.195C506.299 29.063 506.351 29.115 506.351 29.219V29.778C506.351 29.882 506.299 29.934 506.195 29.934H505.623L507.287 34.315H507.313L509.003 29.934H508.418C508.314 29.934 508.262 29.882 508.262 29.778V29.219C508.262 29.115 508.314 29.063 508.418 29.063H510.836C510.949 29.063 511.005 29.115 511.005 29.219V29.778C511.005 29.882 510.949 29.934 510.836 29.934H510.121L508.028 35.225C507.976 35.381 507.877 35.459 507.729 35.459ZM518.941 32.391H514.261C514.296 33.1103 514.521 33.665 514.937 34.055C515.362 34.445 515.838 34.64 516.367 34.64C516.896 34.64 517.346 34.5273 517.719 34.302C518.1 34.0767 518.356 33.8557 518.486 33.639C518.555 33.5523 518.633 33.5393 518.72 33.6L519.071 33.951C519.123 34.003 519.149 34.0507 519.149 34.094C519.149 34.1287 519.127 34.1763 519.084 34.237C519.049 34.2977 518.971 34.393 518.85 34.523C518.729 34.653 518.555 34.8003 518.33 34.965C518.113 35.1297 517.827 35.2683 517.472 35.381C517.125 35.4937 516.753 35.55 516.354 35.55C515.444 35.55 514.681 35.251 514.066 34.653C513.459 34.055 513.156 33.2533 513.156 32.248C513.156 31.234 513.459 30.4367 514.066 29.856C514.673 29.2667 515.414 28.972 516.289 28.972C517.173 28.972 517.866 29.258 518.369 29.83C518.872 30.3933 519.123 31.156 519.123 32.118C519.123 32.1527 519.123 32.1873 519.123 32.222C519.123 32.3347 519.062 32.391 518.941 32.391ZM518.044 31.598C518.018 31.0607 517.849 30.6317 517.537 30.311C517.225 29.9903 516.809 29.83 516.289 29.83C515.769 29.83 515.323 29.9773 514.95 30.272C514.577 30.5667 514.356 31.0087 514.287 31.598H518.044ZM530.856 38.501C530.423 38.501 530.094 38.4707 529.868 38.41C529.652 38.3493 529.474 38.293 529.335 38.241C529.205 38.1977 529.093 38.15 528.997 38.098C528.902 38.0547 528.811 38.007 528.724 37.955C528.343 37.7037 528.2 37.5217 528.295 37.409L528.633 36.928C528.685 36.85 528.759 36.8457 528.854 36.915C528.863 36.915 528.889 36.9323 528.932 36.967C528.984 37.0103 529.032 37.0493 529.075 37.084C529.127 37.1187 529.192 37.1577 529.27 37.201C529.357 37.253 529.452 37.2963 529.556 37.331C529.66 37.3743 529.773 37.4133 529.894 37.448C530.18 37.526 530.497 37.565 530.843 37.565C531.467 37.565 531.966 37.4133 532.338 37.11C532.72 36.8153 532.91 36.3473 532.91 35.706V34.224C532.754 34.588 532.494 34.9 532.13 35.16C531.775 35.42 531.329 35.55 530.791 35.55C529.907 35.55 529.197 35.2423 528.659 34.627C528.131 34.0117 527.866 33.2143 527.866 32.235C527.866 31.2557 528.135 30.467 528.672 29.869C529.218 29.271 529.925 28.972 530.791 28.972C531.329 28.972 531.779 29.0977 532.143 29.349C532.516 29.5917 532.785 29.8907 532.949 30.246H532.975L532.962 29.219C532.962 29.115 533.014 29.063 533.118 29.063H534.652C534.756 29.063 534.808 29.115 534.808 29.219V29.778C534.808 29.882 534.756 29.934 534.652 29.934H533.95V35.706C533.95 36.6333 533.664 37.331 533.092 37.799C532.529 38.267 531.784 38.501 530.856 38.501ZM528.932 32.261C528.932 32.9717 529.123 33.548 529.504 33.99C529.886 34.4233 530.362 34.64 530.934 34.64C531.506 34.64 531.979 34.4233 532.351 33.99C532.733 33.5567 532.923 32.976 532.923 32.248C532.923 31.52 532.733 30.9437 532.351 30.519C531.979 30.0943 531.506 29.882 530.934 29.882C530.362 29.882 529.886 30.0987 529.504 30.532C529.123 30.9653 528.932 31.5417 528.932 32.261ZM542.918 34.64C542.312 35.2467 541.536 35.55 540.591 35.55C539.647 35.55 538.871 35.251 538.264 34.653C537.658 34.0463 537.354 33.2447 537.354 32.248C537.354 31.2427 537.662 30.4453 538.277 29.856C538.893 29.2667 539.664 28.972 540.591 28.972C541.527 28.972 542.299 29.271 542.905 29.869C543.521 30.4583 543.828 31.2513 543.828 32.248C543.828 33.236 543.525 34.0333 542.918 34.64ZM538.446 32.248C538.446 32.9587 538.654 33.535 539.07 33.977C539.486 34.419 539.993 34.64 540.591 34.64C541.198 34.64 541.709 34.419 542.125 33.977C542.541 33.535 542.749 32.9587 542.749 32.248C542.749 31.5373 542.537 30.9653 542.112 30.532C541.696 30.0987 541.194 29.882 540.604 29.882C540.015 29.882 539.508 30.0987 539.083 30.532C538.659 30.9653 538.446 31.5373 538.446 32.248ZM550.765 34.796C550.8 34.8307 550.817 34.8697 550.817 34.913C550.817 34.9477 550.791 34.991 550.739 35.043C550.358 35.381 549.877 35.55 549.296 35.55C548.724 35.55 548.252 35.3637 547.879 34.991C547.515 34.6097 547.333 34.0593 547.333 33.34V29.934H546.605C546.484 29.934 546.423 29.8777 546.423 29.765V29.232C546.423 29.1193 546.484 29.063 546.605 29.063H547.333V27.75C547.333 27.6287 547.394 27.568 547.515 27.568H548.243C548.356 27.568 548.412 27.6287 548.412 27.75V29.063H550.063C550.185 29.063 550.245 29.1193 550.245 29.232V29.765C550.245 29.8777 550.185 29.934 550.063 29.934H548.412V33.314C548.412 33.7473 548.508 34.0767 548.698 34.302C548.898 34.5187 549.158 34.627 549.478 34.627C549.808 34.627 550.055 34.5447 550.219 34.38C550.306 34.302 550.384 34.3063 550.453 34.393L550.765 34.796ZM562.255 35.316C562.117 35.316 562.004 35.2077 561.917 34.991L559.928 29.934H559.213C559.109 29.934 559.057 29.882 559.057 29.778V29.219C559.057 29.115 559.109 29.063 559.213 29.063H561.566C561.679 29.063 561.735 29.115 561.735 29.219V29.778C561.735 29.882 561.679 29.934 561.566 29.934H561.033L562.71 34.341H562.736L564.296 29.934H563.711C563.607 29.934 563.555 29.882 563.555 29.778V29.219C563.555 29.115 563.607 29.063 563.711 29.063H566.129C566.233 29.063 566.285 29.115 566.285 29.219V29.778C566.285 29.882 566.233 29.934 566.129 29.934H565.401L563.087 36.291C562.801 37.0623 562.502 37.6213 562.19 37.968C561.887 38.3233 561.467 38.501 560.929 38.501C560.401 38.501 559.946 38.332 559.564 37.994C559.478 37.9073 559.465 37.8293 559.525 37.76L559.85 37.344C559.928 37.2833 560.006 37.279 560.084 37.331C560.292 37.4957 560.539 37.578 560.825 37.578C561.111 37.578 561.345 37.4783 561.527 37.279C561.718 37.0883 561.9 36.7547 562.073 36.278L562.424 35.316H562.255ZM574.066 34.64C573.459 35.2467 572.683 35.55 571.739 35.55C570.794 35.55 570.018 35.251 569.412 34.653C568.805 34.0463 568.502 33.2447 568.502 32.248C568.502 31.2427 568.809 30.4453 569.425 29.856C570.04 29.2667 570.811 28.972 571.739 28.972C572.675 28.972 573.446 29.271 574.053 29.869C574.668 30.4583 574.976 31.2513 574.976 32.248C574.976 33.236 574.672 34.0333 574.066 34.64ZM569.594 32.248C569.594 32.9587 569.802 33.535 570.218 33.977C570.634 34.419 571.141 34.64 571.739 34.64C572.345 34.64 572.857 34.419 573.273 33.977C573.689 33.535 573.897 32.9587 573.897 32.248C573.897 31.5373 573.684 30.9653 573.26 30.532C572.844 30.0987 572.341 29.882 571.752 29.882C571.162 29.882 570.655 30.0987 570.231 30.532C569.806 30.9653 569.594 31.5373 569.594 32.248ZM584.318 35.459H583.187C582.814 35.459 582.628 35.277 582.628 34.913V34.432H582.589C582.233 35.1773 581.557 35.55 580.561 35.55C579.867 35.55 579.317 35.3463 578.91 34.939C578.511 34.523 578.307 33.9727 578.299 33.288V29.934H577.558C577.454 29.934 577.402 29.882 577.402 29.778V29.219C577.402 29.115 577.454 29.063 577.558 29.063H578.806C579.178 29.063 579.365 29.245 579.365 29.609V33.028C579.365 33.5307 579.486 33.9207 579.729 34.198C579.971 34.4753 580.327 34.614 580.795 34.614C581.427 34.614 581.926 34.38 582.29 33.912C582.446 33.7127 582.524 33.5783 582.524 33.509V29.934H581.822C581.718 29.934 581.666 29.882 581.666 29.778V29.219C581.666 29.115 581.718 29.063 581.822 29.063H583.434C583.538 29.063 583.59 29.115 583.59 29.219V34.588H584.318C584.43 34.588 584.487 34.64 584.487 34.744V35.303C584.487 35.407 584.43 35.459 584.318 35.459ZM599.123 33.951C599.175 33.9943 599.201 34.0377 599.201 34.081C599.201 34.1157 599.179 34.1677 599.136 34.237C599.101 34.2977 599.019 34.393 598.889 34.523C598.768 34.653 598.594 34.8003 598.369 34.965C598.152 35.1297 597.866 35.2683 597.511 35.381C597.164 35.4937 596.792 35.55 596.393 35.55C595.483 35.55 594.72 35.251 594.105 34.653C593.498 34.055 593.195 33.2533 593.195 32.248C593.195 31.234 593.498 30.4367 594.105 29.856C594.72 29.2667 595.47 28.972 596.354 28.972C597.238 28.972 597.905 29.2927 598.356 29.934H598.369L598.356 29.219C598.356 29.1063 598.412 29.05 598.525 29.05H599.019C599.123 29.05 599.175 29.1063 599.175 29.219V31.429C599.175 31.533 599.123 31.585 599.019 31.585H598.421C598.317 31.585 598.265 31.533 598.265 31.429V31.208C598.256 30.896 598.079 30.597 597.732 30.311C597.385 30.025 596.943 29.882 596.406 29.882C595.877 29.882 595.392 30.0943 594.95 30.519C594.508 30.9437 594.287 31.5243 594.287 32.261C594.287 32.989 594.504 33.5697 594.937 34.003C595.37 34.4277 595.856 34.64 596.393 34.64C596.93 34.64 597.385 34.5273 597.758 34.302C598.139 34.068 598.395 33.8427 598.525 33.626C598.586 33.522 598.659 33.509 598.746 33.587L599.123 33.951ZM607.587 34.64C606.98 35.2467 606.204 35.55 605.26 35.55C604.315 35.55 603.539 35.251 602.933 34.653C602.326 34.0463 602.023 33.2447 602.023 32.248C602.023 31.2427 602.33 30.4453 602.946 29.856C603.561 29.2667 604.332 28.972 605.26 28.972C606.196 28.972 606.967 29.271 607.574 29.869C608.189 30.4583 608.497 31.2513 608.497 32.248C608.497 33.236 608.193 34.0333 607.587 34.64ZM603.115 32.248C603.115 32.9587 603.323 33.535 603.739 33.977C604.155 34.419 604.662 34.64 605.26 34.64C605.866 34.64 606.378 34.419 606.794 33.977C607.21 33.535 607.418 32.9587 607.418 32.248C607.418 31.5373 607.205 30.9653 606.781 30.532C606.365 30.0987 605.862 29.882 605.273 29.882C604.683 29.882 604.176 30.0987 603.752 30.532C603.327 30.9653 603.115 31.5373 603.115 32.248ZM614.76 35.459H613.889C613.802 35.459 613.741 35.446 613.707 35.42C613.672 35.3853 613.637 35.3203 613.603 35.225L611.536 29.934H610.808C610.704 29.934 610.652 29.882 610.652 29.778V29.219C610.652 29.115 610.704 29.063 610.808 29.063H613.226C613.33 29.063 613.382 29.115 613.382 29.219V29.778C613.382 29.882 613.33 29.934 613.226 29.934H612.654L614.318 34.315H614.344L616.034 29.934H615.449C615.345 29.934 615.293 29.882 615.293 29.778V29.219C615.293 29.115 615.345 29.063 615.449 29.063H617.867C617.979 29.063 618.036 29.115 618.036 29.219V29.778C618.036 29.882 617.979 29.934 617.867 29.934H617.152L615.059 35.225C615.007 35.381 614.907 35.459 614.76 35.459ZM625.971 32.391H621.291C621.326 33.1103 621.551 33.665 621.967 34.055C622.392 34.445 622.868 34.64 623.397 34.64C623.926 34.64 624.376 34.5273 624.749 34.302C625.13 34.0767 625.386 33.8557 625.516 33.639C625.585 33.5523 625.663 33.5393 625.75 33.6L626.101 33.951C626.153 34.003 626.179 34.0507 626.179 34.094C626.179 34.1287 626.157 34.1763 626.114 34.237C626.079 34.2977 626.001 34.393 625.88 34.523C625.759 34.653 625.585 34.8003 625.36 34.965C625.143 35.1297 624.857 35.2683 624.502 35.381C624.155 35.4937 623.783 35.55 623.384 35.55C622.474 35.55 621.711 35.251 621.096 34.653C620.489 34.055 620.186 33.2533 620.186 32.248C620.186 31.234 620.489 30.4367 621.096 29.856C621.703 29.2667 622.444 28.972 623.319 28.972C624.203 28.972 624.896 29.258 625.399 29.83C625.902 30.3933 626.153 31.156 626.153 32.118C626.153 32.1527 626.153 32.1873 626.153 32.222C626.153 32.3347 626.092 32.391 625.971 32.391ZM625.074 31.598C625.048 31.0607 624.879 30.6317 624.567 30.311C624.255 29.9903 623.839 29.83 623.319 29.83C622.799 29.83 622.353 29.9773 621.98 30.272C621.607 30.5667 621.386 31.0087 621.317 31.598H625.074ZM631.653 35.459H629.17C629.058 35.459 629.001 35.407 629.001 35.303V34.744C629.001 34.64 629.058 34.588 629.17 34.588H629.885V29.934H629.17C629.058 29.934 629.001 29.882 629.001 29.778V29.219C629.001 29.115 629.058 29.063 629.17 29.063H630.691C630.804 29.063 630.86 29.115 630.86 29.219V30.844H630.899C630.925 30.7053 631.016 30.5147 631.172 30.272C631.328 30.0293 631.497 29.83 631.679 29.674C631.87 29.5093 632.139 29.362 632.485 29.232C632.841 29.102 633.239 29.037 633.681 29.037C633.794 29.037 633.85 29.0933 633.85 29.206V29.895C633.85 30.0077 633.794 30.064 633.681 30.064H633.408C632.663 30.064 632.069 30.3023 631.627 30.779C631.185 31.2557 630.964 31.7973 630.964 32.404V34.588H631.653C631.766 34.588 631.822 34.64 631.822 34.744V35.303C631.822 35.407 631.766 35.459 631.653 35.459ZM641.875 32.391H637.195C637.229 33.1103 637.455 33.665 637.871 34.055C638.295 34.445 638.772 34.64 639.301 34.64C639.829 34.64 640.28 34.5273 640.653 34.302C641.034 34.0767 641.29 33.8557 641.42 33.639C641.489 33.5523 641.567 33.5393 641.654 33.6L642.005 33.951C642.057 34.003 642.083 34.0507 642.083 34.094C642.083 34.1287 642.061 34.1763 642.018 34.237C641.983 34.2977 641.905 34.393 641.784 34.523C641.662 34.653 641.489 34.8003 641.264 34.965C641.047 35.1297 640.761 35.2683 640.406 35.381C640.059 35.4937 639.686 35.55 639.288 35.55C638.378 35.55 637.615 35.251 637 34.653C636.393 34.055 636.09 33.2533 636.09 32.248C636.09 31.234 636.393 30.4367 637 29.856C637.606 29.2667 638.347 28.972 639.223 28.972C640.107 28.972 640.8 29.258 641.303 29.83C641.805 30.3933 642.057 31.156 642.057 32.118C642.057 32.1527 642.057 32.1873 642.057 32.222C642.057 32.3347 641.996 32.391 641.875 32.391ZM640.978 31.598C640.952 31.0607 640.783 30.6317 640.471 30.311C640.159 29.9903 639.743 29.83 639.223 29.83C638.703 29.83 638.256 29.9773 637.884 30.272C637.511 30.5667 637.29 31.0087 637.221 31.598H640.978ZM651.717 35.459H650.586C650.387 35.459 650.239 35.42 650.144 35.342C650.057 35.2553 650.014 35.1123 650.014 34.913V34.185H650.001C649.862 34.549 649.602 34.8697 649.221 35.147C648.84 35.4157 648.376 35.55 647.83 35.55C646.963 35.55 646.257 35.2467 645.711 34.64C645.174 34.0333 644.905 33.2403 644.905 32.261C644.905 31.273 645.174 30.48 645.711 29.882C646.257 29.2753 646.968 28.972 647.843 28.972C648.38 28.972 648.827 29.0977 649.182 29.349C649.537 29.5917 649.793 29.8907 649.949 30.246H649.962C649.953 30.0727 649.949 29.9297 649.949 29.817V26.996H649.221C649.108 26.996 649.052 26.944 649.052 26.84V26.281C649.052 26.177 649.108 26.125 649.221 26.125H650.833C650.937 26.125 650.989 26.177 650.989 26.281V34.588H651.717C651.821 34.588 651.873 34.64 651.873 34.744V35.303C651.873 35.407 651.821 35.459 651.717 35.459ZM645.971 32.235C645.971 32.9543 646.157 33.535 646.53 33.977C646.911 34.419 647.392 34.64 647.973 34.64C648.554 34.64 649.03 34.4233 649.403 33.99C649.776 33.548 649.962 32.963 649.962 32.235C649.962 31.507 649.771 30.935 649.39 30.519C649.009 30.0943 648.536 29.882 647.973 29.882C647.41 29.882 646.933 30.0943 646.543 30.519C646.162 30.9437 645.971 31.5157 645.971 32.235Z" fill="white"/>
<defs>
<filter id="filter0_d_140_11" x="0.945312" y="0.239166" width="365.376" height="43.9492" filterUnits="userSpaceOnUse" color-interpolation-filters="sRGB">
<feFlood flood-opacity="0" result="BackgroundImageFix"/>
<feColorMatrix in="SourceAlpha" type="matrix" values="0 0 0 0 0 0 0 0 0 0 0 0 0 0 0 0 0 0 127 0" result="hardAlpha"/>
<feOffset dx="3" dy="3"/>
<feComposite in2="hardAlpha" operator="out"/>
<feColorMatrix type="matrix" values="0 0 0 0 0 0 0 0 0 0 0 0 0 0 0 0 0 0 1 0"/>
<feBlend mode="normal" in2="BackgroundImageFix" result="effect1_dropShadow_140_11"/>
<feBlend mode="normal" in="SourceGraphic" in2="effect1_dropShadow_140_11" result="shape"/>
</filter>
</defs>
</svg>
